<svg width="661" height="661" viewBox="0 0 661 661" fill="none" xmlns="http://www.w3.org/2000/svg">
<circle cx="330.244" cy="330.244" r="330" fill="#FBCE51"/>
<g style="mix-blend-mode:overlay">
<path d="M472.78 613.3L472.388 612.482L473.885 611.457L469.706 603.106L469.373 605.869L467.468 614.118L467.652 614.574L469.211 614.076L469.603 614.894L465.006 617.227L464.614 616.409L465.87 615.523L460.723 605.079L459.259 605.603L458.867 604.785L463.559 602.477L463.951 603.295L462.6 604.156L466.849 612.628L467.131 610.055L469.087 601.616L468.739 601.013L467.059 601.582L466.667 600.764L471.359 598.456L471.751 599.274L470.4 600.134L475.547 610.578L476.986 610.149L477.378 610.967L472.78 613.3Z" fill="black"/>
<path d="M461.405 618.502C460.897 618.876 460.536 619.084 460.174 619.293C459.813 619.502 459.451 619.711 459.115 619.824C457.72 620.469 456.522 620.759 455.546 620.599C454.57 620.44 453.887 619.951 453.45 618.918C453.084 618.004 453.003 617.168 453.327 616.338C453.651 615.508 454.235 614.85 454.983 614.337C453.95 614.773 453.018 614.829 452.163 614.6C451.333 614.276 450.77 613.717 450.378 612.899C449.802 611.625 449.772 610.598 450.242 609.604C450.712 608.609 451.753 607.768 453.389 606.984C454.086 606.661 454.758 606.434 455.284 606.371C455.836 606.213 456.362 606.151 456.673 606.132C456.983 606.113 457.199 606.069 457.294 606.095L458.291 609.214L457.473 609.606L455.98 607.576C455.289 607.493 454.522 607.695 453.489 608.131C452.696 608.428 452.258 608.922 452.08 609.587C451.902 610.252 452.009 610.994 452.375 611.907C452.697 612.604 453.166 613.137 453.806 613.411C454.445 613.684 455.282 613.602 456.316 613.166L457.47 612.661L457.931 613.599L456.898 614.035C456.441 614.219 456.054 614.522 455.642 614.921C455.324 615.345 455.102 615.795 454.975 616.27C454.942 616.771 454.98 617.392 455.232 617.969C455.529 618.762 456.023 619.199 456.593 619.352C457.164 619.505 457.81 619.373 458.603 619.076C459.085 618.797 459.541 618.614 459.833 618.285C460.125 617.956 460.297 617.696 460.347 617.506L459.995 615.782L461.054 615.251L462.394 617.851C462.274 617.92 461.912 618.129 461.405 618.502Z" fill="black"/>
<path d="M446.181 623.998L447.69 623.689L448.056 624.602L445.679 625.493C445.317 625.702 444.766 625.859 444.189 626.112C443.612 626.365 443.25 626.574 443.009 626.713C441.424 627.307 440.156 627.476 439.301 627.247C438.446 627.018 437.787 626.434 437.446 625.426C437.149 624.633 437.068 623.797 437.367 623.062C437.571 622.302 438.154 621.643 438.877 621.226C437.749 621.636 436.792 621.787 435.962 621.463C435.132 621.139 434.473 620.555 434.132 619.547C433.627 618.393 433.717 617.297 434.308 616.233C434.898 615.169 436.059 614.257 437.98 613.55C438.437 613.367 438.773 613.253 439.204 613.165C440.092 612.893 440.669 612.641 440.884 612.596L443.167 611.68L443.438 612.568L442.018 613.308L446.181 623.998ZM438.277 614.343C437.123 614.848 436.375 615.361 435.981 616.07C435.587 616.779 435.694 617.521 435.965 618.408C436.332 619.322 436.8 619.855 437.44 620.128C438.08 620.401 438.916 620.32 439.95 619.884C441.104 619.378 441.871 619.176 442.233 618.967L440.268 613.756C439.862 613.749 439.285 614.002 438.277 614.343ZM441.54 620.411L440.627 620.778C439.835 621.075 439.302 621.543 439.028 622.183C438.755 622.823 438.767 623.539 439.159 624.357C439.456 625.15 439.924 625.682 440.469 625.93C441.014 626.178 441.85 626.097 442.884 625.661C443.34 625.477 443.702 625.269 444.158 625.085L444.52 624.877L442.669 620.001C442.428 620.14 442.092 620.254 441.54 620.411Z" fill="black"/>
<path d="M431.343 630.717L429.422 631.425L421.012 620.615L419.84 620.81L419.568 619.923L424.273 618.331L424.544 619.219L423.149 619.864L424.851 622.255L430.012 620.48L429.965 617.616L428.361 617.899L428.089 617.011L432.337 615.603L432.609 616.491L431.55 617.022L431.343 630.717ZM429.356 628.25L430.311 629.626L430.174 627.858L430.017 621.602L425.528 623.15L429.356 628.25Z" fill="black"/>
<path d="M416.727 621.402C417.868 621.708 418.742 622.248 419.514 623.168C420.286 624.087 420.912 625.172 421.246 626.586C421.606 627.904 421.68 629.147 421.444 630.408C421.208 631.668 420.643 632.637 419.818 633.435C418.993 634.232 418.004 634.884 416.78 635.269C415.893 635.541 414.72 635.736 413.383 635.785L412.762 635.822L412.005 632.564L413.229 632.179L414.386 634.322C414.576 634.373 414.956 634.475 415.362 634.482C415.767 634.488 416.319 634.331 416.965 634.198C417.732 633.996 418.36 633.554 418.824 632.965C419.287 632.376 419.611 631.546 419.65 630.64C419.69 629.734 419.589 628.586 419.274 627.483C418.958 626.38 418.522 625.347 417.915 624.573C417.307 623.799 416.674 623.12 415.94 622.821C415.205 622.522 414.324 622.388 413.436 622.66C412.79 622.792 412.308 623.07 412.067 623.209C411.826 623.349 411.534 623.678 411.363 623.937L411.138 625.914L409.966 626.11L409.652 623.479C409.867 623.435 410.229 623.226 410.711 622.948C411.098 622.644 411.459 622.436 411.916 622.252C412.277 622.044 412.829 621.886 413.381 621.728C414.44 621.197 415.587 621.097 416.727 621.402Z" fill="black"/>
<path d="M402.64 635.962C402.265 636.982 401.7 637.951 401.021 638.584C400.222 639.286 399.378 639.773 398.421 639.924C397.223 640.214 396.127 640.124 395.202 639.775C394.277 639.425 393.428 638.79 392.751 637.896C392.074 637.001 391.543 635.942 391.304 634.554C390.995 633.045 390.946 631.708 391.157 630.542C391.393 629.281 391.958 628.312 392.688 627.489C393.418 626.666 394.356 626.205 395.459 625.889C396.657 625.599 397.779 625.594 398.799 625.969C399.819 626.344 400.572 626.954 401.275 627.753C401.952 628.648 402.483 629.707 402.722 631.095L405.645 630.452L404.422 625.133L402.843 625.321L402.667 624.459L407.675 623.255L407.851 624.117L406.387 624.641L409.06 635.951L410.518 635.832L410.695 636.694L405.807 637.829L405.63 636.967L407.095 636.443L405.96 631.555L403.012 632.293C403.036 633.725 402.92 634.917 402.64 635.962ZM400.573 636.834C400.999 635.624 401.001 634.097 400.535 632.037C400.087 630.287 399.442 628.892 398.549 628.041C397.657 627.191 396.637 626.816 395.344 627.081C394.146 627.371 393.441 628.099 393.041 629.214C392.64 630.329 392.708 631.976 393.174 634.037C393.622 635.786 394.172 637.156 395.064 638.006C395.932 638.952 396.977 639.232 398.08 638.916C399.348 638.747 400.147 638.044 400.573 636.834Z" fill="black"/>
<path d="M381.366 635.151C380.803 634.592 379.98 633.862 379.112 632.917C378.48 632.238 378.106 631.731 377.777 631.439C377.448 631.147 377.188 630.975 376.998 630.925L376.307 630.841L376.131 629.979L378.381 629.564C378.692 629.545 379.047 629.742 379.445 630.154C379.844 630.567 380.477 631.246 381.154 632.14C381.996 633.18 382.629 633.859 383.192 634.418C383.66 634.951 384.11 635.173 384.541 635.085L385.714 634.89L384.776 629.647L383.128 629.715L382.952 628.853L387.978 627.959L388.129 628.916L386.69 629.345L388.717 640.787L390.245 640.789L390.396 641.746L385.489 642.571L385.389 641.423L386.854 640.899L385.941 635.562L384.338 635.845L381.516 641.812L383.069 641.718L383.22 642.676L378.72 643.507L378.569 642.55L380.008 642.12L383.07 636.015C382.569 635.982 381.955 635.614 381.366 635.151Z" fill="black"/>
<path d="M373.012 630.977C374.006 631.447 374.734 632.151 375.265 633.21C375.822 634.174 376.207 635.398 376.446 636.786C376.685 638.174 376.544 639.461 376.118 640.671C375.718 641.786 375.057 642.729 374.258 643.432C373.364 644.109 372.425 644.57 371.157 644.74C369.243 645.042 367.627 644.609 366.501 643.492C365.374 642.375 364.565 640.834 364.339 638.635C364.125 637.152 364.266 635.865 364.667 634.75C365.093 633.54 365.728 632.692 366.553 631.894C367.447 631.217 368.481 630.781 369.653 630.586C370.921 630.417 372.017 630.507 373.012 630.977ZM373.785 641.777C374.306 640.592 374.498 639.116 374.247 637.012C374.04 635.123 373.49 633.753 372.648 632.713C371.807 631.672 370.787 631.297 369.614 631.492C368.442 631.687 367.573 632.269 367.051 633.454C366.53 634.638 366.313 636.21 366.589 638.219C366.796 640.108 367.346 641.478 368.213 642.423C368.985 643.343 369.98 643.813 371.247 643.644C372.369 643.639 373.264 642.961 373.785 641.777Z" fill="black"/>
<path d="M361.638 644.532L363.14 644.629L363.196 645.56L360.686 645.805C360.281 645.798 359.729 645.956 359.108 645.993C358.461 646.125 358.056 646.118 357.84 646.162C356.167 646.325 354.88 646.184 354.102 645.67C353.323 645.156 352.905 644.433 352.78 643.381C352.698 642.544 352.928 641.689 353.296 641.074C353.664 640.46 354.413 639.948 355.3 639.676C354.153 639.776 353.177 639.616 352.398 639.102C351.619 638.588 351.227 637.77 351.171 636.838C351.097 635.596 351.377 634.551 352.227 633.658C353.078 632.765 354.447 632.216 356.526 632.06C356.957 631.972 357.363 631.978 357.863 632.011C358.795 631.955 359.416 631.917 359.606 631.968L362.116 631.724L362.172 632.656L360.663 632.965L361.638 644.532ZM356.652 633.112C355.409 633.186 354.496 633.553 354.033 634.142C353.475 634.705 353.271 635.465 353.422 636.423C353.478 637.354 353.8 638.052 354.319 638.395C354.839 638.738 355.694 638.967 356.746 638.841C357.988 638.767 358.825 638.685 359.161 638.572L358.705 633.051C358.325 632.949 357.704 632.986 356.652 633.112ZM358.209 639.844L357.157 639.97C356.32 640.051 355.623 640.374 355.28 640.893C354.937 641.412 354.733 642.172 354.815 643.009C354.896 643.846 355.123 644.518 355.643 644.861C356.162 645.203 356.922 645.407 357.974 645.282C358.405 645.193 358.906 645.226 359.363 645.043L359.794 644.954L359.356 639.744C359.046 639.763 358.735 639.782 358.209 639.844Z" fill="black"/>
<path d="M332.286 647.26L332.23 646.328L333.833 646.045L333.48 634.44L331.693 634.267L331.637 633.336L336.866 633.209L336.921 634.14L335.343 634.329L335.671 646.028L341.616 645.89L341.288 634.19L339.596 634.042L339.54 633.11L344.769 632.984L344.825 633.915L343.341 634.129L343.695 645.734L345.267 645.951L345.323 646.883L332.286 647.26Z" fill="black"/>
<path d="M327.878 634.06C328.726 634.695 329.429 635.494 329.839 636.623C330.275 637.656 330.445 638.924 330.469 640.356C330.397 641.763 330.161 643.024 329.571 644.088C328.98 645.152 328.25 645.975 327.286 646.532C326.322 647.088 325.219 647.404 324.097 647.409C322.164 647.4 320.72 646.708 319.714 645.521C318.733 644.24 318.26 642.585 318.25 640.342C318.226 638.909 318.583 637.579 319.173 636.515C319.764 635.451 320.519 634.533 321.483 633.976C322.447 633.42 323.55 633.104 324.767 633.125C325.984 633.145 327.029 633.425 327.878 634.06ZM327.123 644.858C327.809 643.82 328.216 642.299 328.251 640.271C328.234 638.433 327.925 636.925 327.299 635.84C326.673 634.756 325.704 634.19 324.487 634.17C323.27 634.15 322.306 634.706 321.621 635.745C320.935 636.783 320.502 638.399 320.468 640.427C320.459 642.36 320.698 643.748 321.419 644.858C322.046 645.942 323.015 646.507 324.231 646.528C325.404 646.333 326.343 645.871 327.123 644.858Z" fill="black"/>
<path d="M312.371 637.952C312.735 636.216 313.161 635.006 313.796 634.157C314.113 633.733 314.405 633.404 314.766 633.195C315.128 632.986 315.559 632.898 315.964 632.905C316.56 632.963 316.966 632.97 317.251 633.046L317.249 634.573C316.964 634.497 316.463 634.465 315.868 634.407C315.678 634.356 315.462 634.4 315.221 634.539C314.98 634.678 314.834 634.843 314.688 635.007C313.59 636.445 312.991 639.442 312.7 643.947L312.603 645.449L314.745 645.82L314.706 646.726L303.882 646.066L303.921 645.16L305.689 645.023L306.457 633.413L304.601 633.119L304.64 632.213L310.337 632.619L310.298 633.526L308.34 633.612L307.571 645.222L311.386 645.429L311.534 643.737C311.809 641.57 312.034 639.593 312.371 637.952Z" fill="black"/>
<path d="M300.493 644.649L302.014 645.057L301.879 645.937L292.374 644.918L292.448 641.984L293.544 642.074L293.871 643.893L298.491 644.52L299.08 639.279L296.006 638.965L295.599 640.486L294.598 640.421L295.028 636.156L296.029 636.221L296.097 637.869L299.144 638.278L299.715 632.727L294.424 632.328L293.217 634.551L292.127 634.055L292.993 630.824L303.284 631.952L303.15 632.833L301.623 632.831L300.493 644.649Z" fill="black"/>
<path d="M285.057 642.957L288.225 643.297L289.434 639.547L290.6 639.757L289.586 644.68L278.041 642.911L278.554 637.956L279.72 638.166L279.772 642.152L282.985 642.708L284.684 631.042L282.093 630.45L282.227 629.569L289.273 630.642L289.139 631.523L286.731 631.387L285.057 642.957Z" fill="black"/>
<path d="M271.727 633.784L272.608 633.918C272.944 633.804 273.356 633.405 273.699 632.886C274.042 632.367 274.626 631.708 275.14 630.929C275.654 630.151 276.118 629.562 276.435 629.137C276.752 628.713 276.993 628.574 277.183 628.625L279.705 629.097L279.571 629.978L278.829 630.085C278.614 630.129 278.398 630.173 278.106 630.502C277.84 630.736 277.402 631.23 276.939 631.819C276.329 632.572 275.866 633.161 275.454 633.56C275.016 634.054 274.654 634.262 274.198 634.446C275.002 634.865 275.565 635.423 275.888 636.121C276.21 636.818 276.292 637.655 276.132 638.631C275.845 640.082 275.185 641.025 274.272 641.392C273.264 641.733 272.021 641.807 270.38 641.47C270 641.368 269.62 641.266 269.05 641.113C268.48 640.96 268.005 640.833 267.719 640.757L265.103 640.259L265.237 639.378L266.834 639.501L269.078 628.083L267.393 627.53L267.527 626.649L272.951 627.695L272.817 628.575L271.03 628.402L270.137 633.256L271.727 633.784ZM269.184 640.232C269.754 640.385 270.229 640.512 270.61 640.614C271.585 640.774 272.302 640.762 272.904 640.414C273.507 640.066 273.875 639.452 274.06 638.381C274.22 637.405 274.138 636.569 273.695 635.941C273.252 635.313 272.638 634.944 271.688 634.69C270.712 634.53 270.047 634.352 269.736 634.371L268.639 639.984L269.184 640.232Z" fill="black"/>
<path d="M258.603 637.906L261.79 638.556L263.284 634.882L264.519 635.213L263.031 640.009L251.74 637.29L252.659 632.341L253.799 632.647L253.446 636.626L256.582 637.466L259.257 625.961L256.717 625.178L256.946 624.323L263.935 625.992L263.705 626.847L261.253 626.495L258.603 637.906Z" fill="black"/>
<path d="M246.599 622.263C247.397 623.088 247.833 624.122 248.028 625.294C248.223 626.467 248.082 627.754 247.7 629.179C247.344 630.509 246.633 631.643 245.808 632.441C244.957 633.333 243.898 633.864 242.795 634.18C241.597 634.47 240.501 634.38 239.265 634.049C238.315 633.794 237.321 633.324 236.066 632.682L235.522 632.435L236.673 629.28L237.908 629.611L237.677 631.994C237.816 632.235 238.076 632.406 238.431 632.603C238.785 632.8 239.33 633.048 239.9 633.2C240.66 633.404 241.377 633.392 242.144 633.19C242.816 632.963 243.564 632.451 244.078 631.672C244.688 630.918 245.158 629.924 245.463 628.783C245.769 627.643 245.954 626.572 245.924 625.545C245.893 624.519 245.622 623.631 245.204 622.908C244.787 622.185 244.103 621.696 243.153 621.442C242.487 621.263 242.012 621.136 241.607 621.129C241.201 621.122 240.865 621.236 240.624 621.375L239.405 622.882L238.316 622.387L239.479 619.948C239.764 620.024 240.169 620.031 240.67 620.063C241.171 620.096 241.576 620.103 241.982 620.109C242.387 620.116 242.958 620.269 243.528 620.422C244.763 620.753 245.827 621.344 246.599 622.263Z" fill="black"/>
<path d="M228.16 630.258L228.484 629.429L230.315 629.817L233.4 620.967L231.224 622.625L224.013 627.11L223.885 627.585L225.425 628.303L225.1 629.133L220.26 627.429L220.585 626.599L222.036 626.886L225.801 615.876L224.357 615.183L224.681 614.353L229.616 616.083L229.291 616.913L227.65 616.575L224.541 625.52L226.596 623.932L234.023 619.403L234.201 618.738L232.567 617.994L232.891 617.164L237.826 618.894L237.502 619.724L235.956 619.411L232.191 630.422L233.54 631.089L233.215 631.919L228.16 630.258Z" fill="black"/>
<path d="M209.067 623.207L210.72 618.557L211.93 618.983L211.032 622.715L214.776 624.329L219.136 613.377L216.153 611.966L216.477 611.136L223.306 613.781L222.982 614.611L220.986 614.076L216.771 624.864L218.545 625.848L218.22 626.678L209.067 623.207Z" fill="black"/>
<path d="M206.528 620.897L207.731 621.729L207.407 622.559L202.764 620.5L203.088 619.67L204.609 620.078L206.642 615.53L200.625 612.899L198.591 617.447L199.89 618.304L199.565 619.134L195.017 617.1L195.342 616.27L196.767 616.652L201.457 605.992L200.133 605.23L200.458 604.4L205.006 606.433L204.681 607.263L203.186 606.761L200.93 611.758L206.948 614.389L209.204 609.392L207.785 608.604L208.109 607.774L212.847 609.859L212.523 610.688L211.123 610.211L206.528 620.897Z" fill="black"/>
<path d="M188.817 614.012L187.018 613.123L188.726 599.524L187.783 598.864L188.202 598.06L192.604 600.258L192.185 601.062L190.69 600.56L190.236 603.392L195.088 605.813L197.081 603.698L195.687 602.816L196.107 602.011L200.059 603.987L199.64 604.791L198.525 604.391L188.817 614.012ZM189.061 610.818L188.723 612.46L189.891 611.143L194.263 606.61L190.051 604.463L189.061 610.818Z" fill="black"/>
<path d="M181.507 600.239C182.579 598.896 183.55 597.934 184.419 597.352C184.901 597.074 185.237 596.96 185.668 596.872C186.074 596.879 186.454 596.981 186.904 597.203C187.448 597.451 187.778 597.743 188.037 597.914L187.465 599.289C187.206 599.117 186.851 598.92 186.237 598.552C186.072 598.406 185.882 598.355 185.666 598.399C185.451 598.443 185.235 598.487 184.994 598.627C183.453 599.436 181.575 601.886 179.288 605.857L178.526 607.181L180.318 608.476L179.899 609.28L170.513 604.015L170.932 603.211L172.592 603.859L178.276 593.669L176.718 592.64L177.138 591.836L182.198 594.618L181.779 595.422L180.049 594.653L174.391 604.749L177.678 606.546L178.491 605.032C179.38 603.234 180.434 601.581 181.507 600.239Z" fill="black"/>
<path d="M153.458 593.538L153.972 592.759L155.607 593.502L161.81 583.655L160.468 582.582L160.982 581.803L165.586 584.768L165.072 585.547L163.533 584.829L157.329 594.677L158.671 595.75L158.157 596.528L153.458 593.538ZM166.271 595.138C164.973 594.28 164.201 593.36 163.859 592.352C163.518 591.344 163.704 590.273 164.415 589.14C165.151 587.911 166.141 587.26 167.313 587.065C168.486 586.87 169.722 587.201 171.045 587.963C171.21 588.109 171.4 588.16 171.565 588.306C171.729 588.452 171.894 588.598 172.084 588.648C172.673 589.112 173.192 589.455 173.616 589.772L175.788 591.169L175.274 591.948L173.83 591.255L167.626 601.103L168.778 602.125L168.264 602.903L163.73 600.059L164.244 599.28L165.973 600.049L168.278 596.388L166.271 595.138ZM171.614 589.643C171.449 589.497 171.189 589.325 170.74 589.103C169.866 588.563 169.01 588.334 168.243 588.536C167.476 588.738 166.823 589.276 166.163 590.219C165.623 591.093 165.419 591.854 165.621 592.621C165.823 593.388 166.361 594.041 167.235 594.581L168.888 595.635L172.247 590.322C172.038 589.96 171.873 589.814 171.614 589.643Z" fill="black"/>
<path d="M147.02 587.535L148.052 588.626L147.537 589.405L143.46 586.377L143.974 585.598L145.393 586.386L148.42 582.308L143.14 578.448L140.112 582.526L141.143 583.617L140.629 584.396L136.646 581.394L137.161 580.615L138.51 581.282L145.397 571.923L144.34 570.927L144.854 570.148L148.932 573.176L148.418 573.955L147.094 573.193L143.895 577.53L149.176 581.39L152.375 577.052L151.153 575.91L151.668 575.131L155.84 578.184L155.326 578.963L154.003 578.201L147.02 587.535Z" fill="black"/>
<path d="M131.182 577.077L129.606 575.738L134.191 562.809L133.419 561.889L134.003 561.23L137.865 564.302L137.255 565.056L135.957 564.199L134.934 566.878L139.195 570.363L141.656 568.781L140.529 567.665L141.113 567.006L144.551 569.761L143.967 570.419L142.903 569.829L131.182 577.077ZM132.187 574.087L131.564 575.652L132.966 574.602L138.18 571.109L134.508 568.088L132.187 574.087Z" fill="black"/>
<path d="M120.079 566.056L121.389 567.629L120.805 568.287L117.14 564.861L120.901 556.905L122.083 554.777L120.078 556.175L112.487 560.558L108.891 557.252L109.475 556.594L111.172 557.863L117.99 548.384L116.914 547.077L117.498 546.419L121.397 550.112L120.814 550.77L119.446 549.793L114.393 556.486L112.197 559.36L114.607 557.969L123.593 552.941L124.486 553.791L120.641 562.438L119.034 565.776L121.724 563.339L128.024 557.693L126.758 556.336L127.342 555.677L130.938 558.983L130.354 559.642L129.081 558.69L120.079 566.056Z" fill="black"/>
<path d="M103.751 552.106L102.321 550.602L108.445 538.391L107.793 537.401L108.472 536.768L111.897 540.334L111.218 540.967L109.945 540.015L108.541 542.593L112.39 546.476L114.99 545.136L114.009 543.854L114.688 543.221L117.809 546.4L117.13 547.033L116.186 546.373L103.751 552.106ZM105.136 549.218L104.323 550.732L105.864 549.922L111.521 547.058L108.166 543.613L105.136 549.218Z" fill="black"/>
<path d="M97.5441 543.72L98.3348 544.951L97.6559 545.584L96.0167 543.719C95.6875 543.427 95.3838 543.04 95.0546 542.748C94.5607 542.31 94.0924 541.777 93.6936 541.364C92.5227 540.032 91.9221 538.853 91.8916 537.826C91.8612 536.799 92.4009 535.925 93.3717 534.963C94.1456 534.356 94.8941 533.843 95.7307 533.762C96.5929 533.585 97.4737 533.719 98.3035 534.044C99.1333 534.368 99.8868 534.977 100.589 535.777C100.823 536.043 101.058 536.31 101.292 536.576C101.526 536.842 101.665 537.083 101.76 537.109L104.837 534.368L103.249 532.313L103.928 531.68L108.004 536.235L107.325 536.868L106.173 535.847L97.5441 543.72ZM99.885 536.505C99.252 535.826 98.4476 535.406 97.6619 535.298C96.8762 535.189 95.8426 535.625 94.8718 536.587C94.0724 537.29 93.6786 537.999 93.6905 538.715C93.7023 539.432 94.0942 540.25 94.7967 541.049C95.0309 541.315 95.3601 541.607 95.6893 541.899C95.8539 542.045 96.0185 542.191 96.0881 542.312L101.03 537.932C100.796 537.666 100.423 537.158 99.885 536.505Z" fill="black"/>
<path d="M97.8444 525.874C98.0395 527.047 97.8544 528.118 97.2638 529.182C96.7681 530.271 95.8923 531.259 94.8265 532.195C93.7607 533.132 92.6066 533.638 91.4339 533.833C90.2612 534.028 89.0444 534.007 87.955 533.512C86.84 533.111 85.8965 532.451 85.0549 531.411C84.4474 530.637 83.7958 529.647 83.1951 528.468L82.9423 527.891L85.6255 525.86L86.3976 526.779L84.8871 528.615C84.9312 528.831 84.9498 529.142 85.133 529.598C85.3418 529.96 85.6201 530.442 85.9934 530.949C86.5313 531.602 87.1456 531.971 87.9059 532.175C88.6661 532.378 89.5028 532.297 90.3904 532.025C91.278 531.754 92.2419 531.197 93.1618 530.425C94.0817 529.653 94.786 528.925 95.3258 528.051C95.8655 527.177 96.1898 526.347 96.2034 525.536C96.217 524.725 95.9201 523.933 95.4077 523.184C95.0344 522.677 94.6101 522.359 94.2809 522.067C93.9517 521.775 93.6666 521.699 93.356 521.718L91.4604 522.33L90.8088 521.341L93.0982 520.019C93.2628 520.165 93.592 520.457 94.0163 520.774C94.4405 521.092 94.7952 521.288 95.1244 521.58C95.4536 521.872 95.7573 522.259 96.2511 522.697C97.2133 523.668 97.7444 524.727 97.8444 525.874Z" fill="black"/>
<path d="M67.3701 507.319L68.1186 506.807L69.264 508.234L77.0845 502.996L74.3404 502.974L65.906 502.14L65.519 502.443L66.2334 503.959L65.4849 504.471L62.6699 500.152L63.4183 499.64L64.45 500.731L74.129 494.259L73.3892 492.839L74.1376 492.326L77.0477 496.671L76.2993 497.183L75.2235 495.876L67.2824 501.184L69.8365 501.156L78.4609 502.041L79.0634 501.693L78.254 500.152L79.0025 499.639L81.9126 503.984L81.1641 504.496L80.1579 503.31L70.479 509.782L71.1237 511.177L70.3753 511.689L67.3701 507.319Z" fill="black"/>
<path d="M60.7474 496.683C60.3486 496.271 60.0449 495.884 59.7157 495.592C59.3865 495.3 59.2728 494.964 59.0386 494.697C58.2734 493.372 57.8628 492.243 57.8323 491.217C57.8018 490.19 58.2907 489.506 59.2547 488.949C60.0981 488.462 60.9603 488.286 61.8156 488.515C62.6709 488.744 63.3547 489.233 63.9877 489.912C63.4311 488.948 63.1851 487.965 63.4143 487.11C63.6435 486.255 64.1323 485.571 64.8808 485.058C65.9907 484.337 67.1634 484.142 68.1833 484.517C69.2032 484.893 70.1908 485.768 71.1903 487.36C71.5381 487.963 71.8859 488.565 72.0437 489.117C72.2015 489.668 72.3848 490.125 72.4984 490.461C72.6121 490.797 72.6562 491.012 72.6307 491.107L69.7202 492.467L69.2332 491.623L71.0034 489.958C70.9915 489.242 70.6946 488.45 70.1126 487.581C69.6952 486.858 69.1064 486.394 68.5107 486.337C67.915 486.279 67.0529 486.455 66.2094 486.942C65.5814 487.385 65.1436 487.879 64.8703 488.519C64.692 489.184 64.8684 490.046 65.4505 490.915L66.1716 492.025L65.3027 492.607L64.7461 491.643C64.4678 491.161 64.1386 490.869 63.7144 490.552C63.2902 490.234 62.815 490.107 62.3144 490.075C61.8137 490.042 61.2622 490.2 60.6597 490.548C59.9367 490.966 59.5939 491.485 59.4411 492.055C59.3833 492.651 59.5156 493.297 59.933 494.02C60.2113 494.502 60.515 494.889 60.8697 495.086C61.1989 495.378 61.484 495.454 61.6996 495.41L63.3797 494.842L64.0313 495.831L61.6654 497.438C61.4754 497.387 61.2412 497.121 60.7474 496.683Z" fill="black"/>
<path d="M53.4003 482.288L53.9245 483.752L53.1065 484.144L51.8797 481.88C51.671 481.519 51.3927 481.037 51.0194 480.529C50.6461 480.022 50.4374 479.66 50.2983 479.419C49.4889 477.878 49.1988 476.68 49.2379 475.774C49.3721 474.893 49.8609 474.209 50.8249 473.653C51.6429 473.261 52.41 473.059 53.1702 473.263C53.956 473.371 54.6398 473.86 55.1778 474.514C54.6467 473.455 54.4007 472.472 54.6299 471.617C54.859 470.761 55.3479 470.078 56.2864 469.616C57.3709 468.99 58.5181 468.89 59.6075 469.385C60.7225 469.786 61.7542 470.877 62.7723 472.78C62.981 473.141 63.1642 473.598 63.3729 473.959C63.7649 474.777 64.0177 475.354 64.1823 475.5L65.3395 477.644L64.5215 478.036L63.6357 476.78L53.4003 482.288ZM56.3977 477.183L55.9362 476.245C55.5188 475.522 55.0505 474.989 54.3852 474.811C53.72 474.632 53.0734 474.765 52.2554 475.157C51.5324 475.574 50.9995 476.042 50.8467 476.613C50.6939 477.183 50.8958 477.95 51.3573 478.888C51.566 479.25 51.8443 479.732 52.053 480.093L52.2617 480.455L56.8847 478.027C56.8847 478.027 56.676 477.665 56.3977 477.183ZM62.0493 473.197C61.4232 472.113 60.7902 471.434 60.0554 471.135C59.3206 470.836 58.579 470.943 57.7355 471.43C56.892 471.917 56.3591 472.386 56.2759 473.076C56.1927 473.767 56.2995 474.509 56.8561 475.473C57.4822 476.557 57.8046 477.255 58.0133 477.616L62.9028 474.954C62.7636 474.713 62.5108 474.136 62.0493 473.197Z" fill="black"/>
<path d="M44.8989 468.398L43.9758 466.521L53.5889 456.874L53.2733 455.771L54.0913 455.379L56.2598 459.831L55.4418 460.223L54.5815 458.872L52.4244 460.84L54.7761 465.748L57.6475 465.296L57.1487 463.736L57.9668 463.344L59.857 467.314L59.0389 467.706L58.3873 466.716L44.8989 468.398ZM47.0629 466.024L45.7306 467.195L47.4548 466.842L53.6984 465.969L51.5995 461.638L47.0629 466.024Z" fill="black"/>
<path d="M52.2758 452.652C52.0907 453.723 51.5951 454.812 50.8653 455.635C50.1355 456.458 49.0001 457.274 47.7256 457.85C46.451 458.425 45.1833 458.595 43.9919 458.479C42.8006 458.364 41.6857 457.963 40.7422 457.303C39.7986 456.642 39.052 455.628 38.5464 454.473C38.1799 453.56 37.8643 452.457 37.5997 451.164L37.4674 450.517L40.6376 449.33L41.1432 450.484L39.1389 451.882C39.088 452.072 39.0811 452.478 39.1693 452.909C39.2576 453.34 39.4153 453.891 39.6681 454.468C39.9905 455.166 40.4334 455.794 41.1427 456.188C41.8521 456.582 42.6124 456.785 43.5441 456.729C44.4758 456.673 45.5534 456.453 46.7075 455.947C47.741 455.511 48.705 454.955 49.5044 454.252C50.3038 453.55 50.7926 452.866 51.0217 452.01C51.346 451.181 51.2646 450.344 50.8726 449.526C50.6198 448.949 50.3415 448.467 50.1074 448.2C49.8732 447.934 49.639 447.667 49.2589 447.566L47.2309 447.531L46.9153 446.428L49.5272 445.804C49.6663 446.045 49.875 446.407 50.1788 446.793C50.4825 447.18 50.8117 447.472 51.0204 447.834C51.2291 448.195 51.5074 448.677 51.7602 449.254C52.2658 450.408 52.4609 451.581 52.2758 452.652Z" fill="black"/>
<path d="M36.0851 440.47C35.0143 440.285 34.0198 439.815 33.2664 439.206C32.5129 438.597 31.9309 437.728 31.5899 436.72C31.1793 435.591 31.0538 434.539 31.3339 433.493C31.614 432.448 32.0587 431.549 32.8581 430.846C33.6829 430.049 34.6469 429.492 35.896 429.012C37.3606 428.488 38.6284 428.318 39.8452 428.338C41.0365 428.454 42.1514 428.855 42.9999 429.489C43.8484 430.124 44.5254 431.019 44.9615 432.052C45.3721 433.181 45.4721 434.328 45.287 435.399C45.102 436.47 44.5622 437.343 43.7374 438.141C42.9125 438.939 41.9231 439.59 40.674 440.07L41.748 442.905L46.8394 441.009L46.4611 439.38L47.3487 439.109L49.1047 443.959L48.2171 444.231L47.4773 442.81L36.6225 446.828L36.9313 448.336L36.0437 448.608L34.2621 443.853L35.1497 443.581L35.8896 445.002L40.6449 443.22L39.5709 440.386C38.3727 440.676 37.1305 440.751 36.0851 440.47ZM34.9465 438.638C36.182 438.969 37.7602 438.78 39.7069 437.978C41.4125 437.314 42.6429 436.524 43.4237 435.511C44.2044 434.497 44.3894 433.427 43.9789 432.298C43.5683 431.169 42.7198 430.535 41.5794 430.229C40.439 429.924 38.8352 430.207 36.9141 430.914C35.2085 431.578 33.978 432.368 33.2228 433.287C32.442 434.3 32.2824 435.275 32.693 436.404C32.9831 437.602 33.8061 438.332 34.9465 438.638Z" fill="black"/>
<path d="M34.2912 419.415C34.78 418.731 35.4148 417.883 36.2906 416.895C36.8744 416.237 37.3123 415.743 37.6297 415.319C37.9216 414.989 37.998 414.704 38.049 414.514L38.0371 413.798L38.9247 413.527L39.6509 415.758C39.79 415.999 39.5677 416.449 39.2503 416.873C38.9074 417.393 38.3236 418.051 37.4987 418.849C36.623 419.836 35.9186 420.564 35.4553 421.153C34.9919 421.742 34.8646 422.217 34.9783 422.553L35.2938 423.656L40.4038 422.072L40.146 420.373L41.0336 420.101L42.5741 424.996L41.6866 425.267L41.0418 423.872L29.9342 427.313L30.1479 428.796L29.2603 429.068L27.7893 424.294L28.6769 424.022L29.3217 425.417L34.4317 423.833L33.9329 422.273L27.642 420.282L27.9253 421.885L27.0377 422.157L25.6805 417.719L26.568 417.448L27.2383 418.748L33.6683 420.98C33.5546 420.644 33.8279 420.004 34.2912 419.415Z" fill="black"/>
<path d="M37.2807 410.539C36.9056 411.559 36.2708 412.408 35.3764 413.085C34.482 413.762 33.3025 414.363 31.9838 414.722C30.5701 415.056 29.3279 415.131 28.162 414.92C26.9961 414.71 26.0271 414.145 25.2041 413.415C24.3811 412.685 23.8246 411.721 23.5345 410.523C23.017 408.653 23.2344 407.081 24.212 405.714C25.1642 404.441 26.6356 403.511 28.7214 402.949C30.1351 402.615 31.4723 402.566 32.6382 402.777C33.8041 402.987 34.8681 403.578 35.6911 404.308C36.5141 405.037 37.0707 406.001 37.3608 407.2C37.6509 408.398 37.6559 409.52 37.2807 410.539ZM26.6247 412.675C27.8346 413.101 29.3875 413.008 31.3527 412.516C33.1974 412.094 34.5229 411.328 35.3732 410.436C36.2235 409.543 36.5291 408.403 36.2136 407.3C35.9235 406.102 35.1005 405.372 33.8905 404.946C32.6805 404.52 31.0326 404.587 29.0674 405.079C27.2226 405.502 25.8972 406.267 25.0469 407.16C24.1965 408.052 23.9164 409.097 24.2065 410.296C24.7122 411.45 25.5097 412.275 26.6247 412.675Z" fill="black"/>
<path d="M22.4305 400.958L22.5237 402.511L21.6616 402.688L21.1069 400.196C21.0187 399.765 20.8609 399.214 20.7031 398.662C20.5454 398.11 20.3621 397.654 20.3434 397.343C19.9906 395.619 20.0111 394.402 20.3353 393.572C20.6595 392.743 21.408 392.23 22.3906 391.984C23.2527 391.808 24.0384 391.916 24.7732 392.215C25.4826 392.609 26.046 393.167 26.4379 393.985C26.1478 392.787 26.1869 391.881 26.6062 391.077C27.0254 390.272 27.7739 389.76 28.731 389.609C29.9292 389.319 31.0951 389.529 32.0131 390.285C32.9566 390.945 33.6964 392.365 34.0934 394.305C34.1816 394.736 34.2698 395.167 34.263 395.573C34.4139 396.53 34.5717 397.081 34.6158 397.297L35.196 399.693L34.3339 399.87L33.8096 398.405L22.4305 400.958ZM26.6753 396.901L26.4293 395.918C26.2528 395.056 25.905 394.454 25.2907 394.085C24.7714 393.743 23.9857 393.634 23.0981 393.905C22.236 394.082 21.6335 394.43 21.3857 394.974C21.1378 395.519 21.0291 396.305 21.2497 397.382C21.3379 397.814 21.4261 398.245 21.6093 398.701L21.723 399.037L26.8008 397.953C26.8517 397.763 26.738 397.427 26.6753 396.901ZM33.1108 394.551C32.8207 393.353 32.4287 392.535 31.7448 392.046C31.156 391.583 30.3702 391.474 29.3876 391.72C28.4305 391.871 27.8025 392.314 27.5547 392.859C27.2118 393.378 27.1727 394.284 27.3932 395.362C27.6833 396.56 27.8598 397.422 27.9734 397.758L33.3872 396.56C33.4636 396.275 33.3313 395.629 33.1108 394.551Z" fill="black"/>
<path d="M15.9688 372.235L16.926 372.084L17.4248 373.643L28.9107 371.832L28.8684 370.089L29.8256 369.938L30.6686 375.155L29.7114 375.306L29.3076 373.772L17.8217 375.583L18.7716 381.542L30.3525 379.756L30.3102 378.013L31.2674 377.862L32.0154 383.053L31.0582 383.204L30.6289 381.765L19.143 383.576L19.1158 385.199L18.1586 385.35L15.9688 372.235Z" fill="black"/>
<path d="M28.6009 366.147C28.1562 367.046 27.3314 367.844 26.3674 368.4C25.4034 368.957 24.1798 369.342 22.722 369.461C21.2642 369.579 19.9778 369.438 18.8629 369.038C17.748 368.637 16.8044 367.977 16.1274 367.082C15.4503 366.188 15.0143 365.154 14.9142 364.007C14.7074 362.118 15.1403 360.503 16.257 359.376C17.3738 358.249 18.9844 357.56 21.1838 357.335C22.6416 357.216 23.928 357.357 25.0429 357.758C26.1579 358.158 27.1014 358.819 27.8734 359.739C28.5505 360.633 28.9865 361.667 29.0866 362.814C29.2307 364.177 29.0456 365.247 28.6009 366.147ZM17.7566 366.704C18.9157 367.32 20.4176 367.417 22.4965 367.261C24.3853 367.054 25.7294 366.6 26.7698 365.758C27.7847 365.011 28.2549 364.017 28.0853 362.749C27.9853 361.602 27.3082 360.708 26.1492 360.091C24.9901 359.475 23.3932 359.353 21.4093 359.534C19.5205 359.741 18.0813 360.17 17.136 361.038C16.1211 361.784 15.7459 362.804 15.9155 364.072C15.9901 365.314 16.6671 366.209 17.7566 366.704Z" fill="black"/>
<path d="M22.6926 351.322C24.3846 351.47 25.7405 351.732 26.6399 352.176C27.0897 352.399 27.4188 352.691 27.653 352.957C27.8617 353.319 27.9754 353.655 28.0636 354.086C28.1009 354.707 28.0941 355.113 28.0177 355.398L26.5344 355.611C26.5158 355.301 26.5226 354.895 26.5108 354.179C26.4667 353.963 26.4226 353.748 26.258 353.602C26.0934 353.456 25.9288 353.31 25.6691 353.139C24.1554 352.326 21.082 352.011 16.5186 352.316L15.0608 352.435L15.0012 354.558L14.0695 354.614L13.3916 343.839L14.3233 343.783L14.6762 345.508L26.2876 344.748L26.3658 342.936L27.2975 342.88L27.7026 348.591L26.7709 348.647L26.469 346.732L14.8831 347.396L15.0813 351.218L16.7292 351.151C19.0677 351.166 21.0007 351.175 22.6926 351.322Z" fill="black"/>
<path d="M14.5239 340.374L14.3066 341.945L13.3749 342.001L13.1771 332.476L16.1182 332.143L16.1486 333.17L14.3735 333.713L14.3425 338.39L19.5712 338.263L19.4798 335.183L17.9084 334.966L17.8779 333.939L22.1749 333.868L22.2053 334.895L20.6016 335.178L20.5725 338.328L26.1117 338.182L25.7948 332.903L23.4003 331.956L23.7059 330.815L26.9439 331.275L27.128 341.612L26.1963 341.668L26.008 340.09L14.5239 340.374Z" fill="black"/>
<path d="M14.3083 324.834L14.3742 328.009L18.2519 328.743L18.2315 329.959L13.2506 329.541L13.518 317.9L18.5312 317.817L18.5107 319.034L14.587 319.612L14.4374 322.831L26.1998 323.029L26.4121 320.336L27.3184 320.375L27.1515 327.46L26.2452 327.421L26.0961 324.937L14.3083 324.834Z" fill="black"/>
<path d="M21.7342 310.425L21.6951 311.331C21.9038 311.692 22.233 311.984 22.8473 312.353C23.3666 312.695 24.0759 313.089 24.9753 313.534C25.8747 313.979 26.489 314.347 26.9387 314.569C27.3884 314.792 27.6226 315.058 27.5717 315.248L27.4102 317.751L26.504 317.712L26.3972 316.971C26.3531 316.755 26.1885 316.609 25.9543 316.343C25.5996 316.146 25.1754 315.828 24.4915 315.34C23.6871 314.92 23.0983 314.457 22.579 314.114C22.0597 313.771 21.756 313.384 21.5473 313.023C21.2231 313.853 20.7597 314.442 20.0113 314.954C19.2883 315.371 18.5212 315.573 17.5199 315.509C16.018 315.412 15.0236 314.942 14.467 313.978C13.9105 313.014 13.7409 311.746 13.8632 310.149C13.87 309.743 13.9719 309.363 14.0296 308.768C14.0874 308.172 14.2147 307.697 14.1961 307.386L14.4084 304.693L15.3147 304.732L15.4079 306.285L27.0175 307.053L27.2857 305.292L28.192 305.331L27.8368 310.838L26.9306 310.798L26.9138 308.961L21.9074 308.638L21.7342 310.425ZM14.9613 308.712C14.8085 309.282 14.7763 309.783 14.7694 310.188C14.7049 311.189 14.8117 311.931 15.2801 312.464C15.7484 312.997 16.3882 313.27 17.4845 313.36C18.4857 313.425 19.2528 313.223 19.8808 312.78C20.5087 312.337 20.7124 311.577 20.8721 310.601C20.9366 309.6 20.9944 309.004 20.9062 308.573L15.2091 308.167L14.9613 308.712Z" fill="black"/>
<path d="M15.9055 297.964L15.6609 301.158L19.4622 302.177L19.3467 303.368L14.3727 302.544L15.6414 290.967L20.6477 291.29L20.5322 292.481L16.6154 292.654L16.1552 295.892L27.8275 297.186L28.325 294.569L29.2057 294.704L28.4177 301.826L27.5369 301.692L27.5778 299.258L15.9055 297.964Z" fill="black"/>
<path d="M30.0297 284.026C29.2999 284.849 28.3105 285.5 27.2073 285.816C26.1042 286.131 24.7669 286.181 23.411 285.919C22.0551 285.658 20.8451 285.232 19.927 284.476C19.009 283.721 18.2369 282.801 17.8263 281.673C17.4157 280.544 17.3157 279.397 17.5517 278.136C17.7113 277.16 18.0169 276.02 18.538 274.835L18.7858 274.29L22.0679 274.966L21.8319 276.227L19.3728 276.281C19.2269 276.446 19.0554 276.705 18.8331 277.155C18.6362 277.51 18.4834 278.08 18.4256 278.676C18.3169 279.461 18.4238 280.203 18.7462 280.9C19.0686 281.598 19.632 282.156 20.5059 282.696C21.2848 283.21 22.3302 283.49 23.5911 283.726C24.757 283.937 25.7837 283.907 26.8359 283.781C27.793 283.63 28.7061 283.264 29.3595 282.726C30.0129 282.188 30.4067 281.478 30.5663 280.503C30.6495 279.812 30.6818 279.311 30.6632 279.001C30.6445 278.69 30.5308 278.354 30.3221 277.993L28.6693 276.939L28.9749 275.798L31.4899 276.676C31.4135 276.961 31.5271 277.297 31.5899 277.823C31.6781 278.254 31.6458 278.755 31.734 279.186C31.8222 279.617 31.6949 280.092 31.6117 280.783C31.2806 282.018 30.785 283.108 30.0297 284.026Z" fill="black"/>
<path d="M19.7963 266.718L20.6771 266.852L20.5038 268.639L29.6593 270.583L27.735 268.642L22.3813 262.013L21.9062 261.885L21.3783 263.475L20.4975 263.341L21.5365 258.323L22.4173 258.457L22.3204 259.959L33.6872 262.394L34.1896 260.899L35.0449 261.128L33.9804 266.241L33.1251 266.012L33.2729 264.32L23.9273 262.325L25.7821 264.146L31.2053 270.896L31.8706 271.074L32.424 269.389L33.3047 269.523L32.2402 274.636L31.3595 274.502L31.4818 272.905L20.115 270.471L19.638 271.871L18.7573 271.736L19.7963 266.718Z" fill="black"/>
<path d="M24.3768 246.963L29.1794 248.046L28.8484 249.281L25.0843 248.884L23.9198 252.85L35.3748 255.715L36.4052 252.63L37.2605 252.86L35.4711 259.917L34.6158 259.688L34.9605 257.642L23.6956 254.827L22.9963 256.677L22.141 256.448L24.3768 246.963Z" fill="black"/>
<path d="M26.3574 244.132L25.6903 245.482L24.835 245.252L26.3492 240.362L27.2045 240.591L26.9872 242.162L31.7829 243.651L33.6791 237.335L28.8833 235.846L28.2163 237.195L27.361 236.966L28.8497 232.17L29.705 232.399L29.5131 233.876L40.6252 237.261L41.1972 235.886L42.0525 236.115L40.5638 240.911L39.7085 240.682L40.0209 239.136L34.845 237.545L32.9488 243.862L38.1247 245.452L38.7222 243.982L39.5775 244.212L38.0633 249.103L37.208 248.873L37.4949 247.422L26.3574 244.132Z" fill="black"/>
<path d="M30.8919 225.689L31.6167 223.744L45.2679 223.735L45.8586 222.671L46.6884 222.996L45.0351 227.645L44.2053 227.321L44.5176 225.775L41.5834 225.702L39.8028 230.827L42.0886 232.56L42.7811 231.116L43.6109 231.44L42.1799 235.64L41.3501 235.316L41.5606 234.15L30.8919 225.689ZM34.1621 225.649L32.4702 225.501L33.933 226.504L38.9288 230.287L40.5312 225.827L34.1621 225.649Z" fill="black"/>
<path d="M43.7871 216.718C45.2753 217.626 46.3835 218.432 46.991 219.206C47.2947 219.593 47.4779 220.049 47.5916 220.385C47.6798 220.816 47.578 221.197 47.4761 221.577C47.2283 222.121 47.0314 222.476 46.86 222.736L45.4599 222.259C45.6314 221.999 45.7587 221.524 46.0065 220.979C46.0574 220.789 46.1338 220.504 46.0643 220.383C46.0202 220.168 45.881 219.927 45.7419 219.686C44.6915 218.284 42.0697 216.665 37.8255 215.018L36.4509 214.446L35.441 216.315L34.6111 215.99L38.6221 205.963L39.452 206.287L38.9936 207.998L49.7561 212.307L50.5946 210.699L51.4244 211.023L49.2823 216.357L48.4524 216.032L48.9617 214.132L38.1993 209.822L36.7564 213.306L38.3211 213.929C40.4746 215.015 42.2988 215.81 43.7871 216.718Z" fill="black"/>
<path d="M46.7972 200.922C47.4643 199.573 48.2196 198.655 49.2531 198.218C50.2867 197.782 51.2879 197.847 52.4724 198.368C53.7265 199.01 54.6191 199.86 54.9092 201.058C55.2248 202.161 55.0838 203.448 54.4167 204.797C54.3658 204.987 54.2198 205.151 54.1689 205.342C54.023 205.506 53.972 205.696 53.8006 205.956C53.4323 206.57 53.1845 207.115 52.9366 207.66L51.9199 209.934L51.1155 209.514L51.618 208.019L41.0338 203.044L40.1767 204.342L39.3723 203.923L41.5772 199.116L42.3816 199.535L41.8027 201.315L45.6855 203.17L46.7972 200.922ZM46.8 187.987L47.6044 188.406L47.051 190.091L57.5402 195.041L58.4482 193.552L59.2526 193.972L56.9017 198.944L56.0974 198.525L56.6507 196.839L46.1616 191.89L45.2536 193.378L44.4492 192.959L46.8 187.987ZM52.9708 205.632C53.1167 205.467 53.2186 205.087 53.4155 204.732C53.8602 203.833 53.8993 202.927 53.6024 202.134C53.3055 201.341 52.647 200.758 51.6526 200.287C50.7532 199.843 49.8469 199.804 49.1749 200.031C48.4774 200.353 47.919 200.917 47.4743 201.816L46.7053 203.545L52.4124 206.195C52.6534 206.056 52.8248 205.796 52.9708 205.632Z" fill="black"/>
<path d="M51.8599 180.888L50.9332 182.066L50.1288 181.647L52.6375 177.226L53.4418 177.645L52.8443 179.115L57.2905 181.528L60.4662 175.759L56.0201 173.345L55.0933 174.523L54.289 174.104L56.6771 169.752L57.4815 170.172L57.0045 171.572L67.1949 177.256L68.1216 176.078L68.926 176.498L66.5124 180.944L65.708 180.525L66.3055 179.055L61.5047 176.444L58.329 182.214L63.1298 184.825L64.1074 183.457L64.9118 183.876L62.3777 188.392L61.5733 187.973L62.1453 186.598L51.8599 180.888Z" fill="black"/>
<path d="M60.2834 163.894L61.3629 162.147L74.7254 165.116L75.4806 164.198L76.2595 164.712L73.6118 168.892L72.8329 168.377L73.5254 166.933L70.6744 166.169L67.8042 170.799L69.6521 173.025L70.6993 171.778L71.4782 172.292L69.1479 176.048L68.3689 175.534L68.8646 174.444L60.2834 163.894ZM63.3754 164.519L61.7598 164.086L62.9562 165.324L67.0762 170.094L69.5781 166.079L63.3754 164.519Z" fill="black"/>
<path d="M69.8493 151.383L68.5102 152.959L67.7313 152.445L70.6387 148.437L78.9694 151.178L81.2688 152.1L79.6296 150.235L74.2827 143.2L77.1902 139.192L77.9691 139.706L76.9846 141.479L87.321 146.999L88.4632 145.777L89.2422 146.291L86.0173 150.724L85.2384 150.21L86.0515 148.696L78.7239 144.492L75.5318 142.72L77.2847 144.921L83.4223 153.186L82.7366 154.225L73.6898 151.495L70.1294 150.337L72.8581 152.698L79.2335 158.175L80.4267 156.763L81.2056 157.278L78.4187 161.216L77.6397 160.702L78.4273 159.283L69.8493 151.383Z" fill="black"/>
<path d="M81.5572 133.538L82.8013 131.936L95.7563 136.426L96.5812 135.628L97.3346 136.237L94.2626 140.1L93.5091 139.49L94.3663 138.192L91.6867 137.168L88.2973 141.455L89.9042 143.821L91.0209 142.694L91.7744 143.303L89.0198 146.741L88.2663 146.132L88.857 145.068L81.5572 133.538ZM84.5728 134.447L83.0082 133.825L84.0585 135.226L87.5506 140.44L90.4767 136.742L84.5728 134.447Z" fill="black"/>
<path d="M89.1014 126.29L87.9406 127.201L87.1871 126.592L88.8182 124.686C89.1101 124.357 89.402 124.028 89.5989 123.673C90.0368 123.179 90.3796 122.66 90.8175 122.166C91.9852 120.85 93.1206 120.033 94.0778 119.882C95.0349 119.731 96.0549 120.107 97.0425 120.982C97.7959 121.592 98.3084 122.34 98.5798 123.228C98.8513 124.115 98.8376 124.926 98.6084 125.782C98.3793 126.637 97.9346 127.537 97.2302 128.264C96.9638 128.499 96.7669 128.853 96.5004 129.088C96.234 129.322 96.088 129.486 96.0625 129.581L99.2155 132.26L101.011 130.5L101.67 131.084L97.6776 135.718L97.0192 135.134L97.8763 133.836L89.1014 126.29ZM96.5718 127.681C97.1811 126.927 97.5053 126.097 97.4239 125.261C97.3426 124.424 96.8556 123.581 95.7984 122.584C94.9754 121.854 94.2406 121.556 93.4989 121.663C92.7573 121.769 92.1293 122.212 91.279 123.105C90.9871 123.434 90.7902 123.789 90.4983 124.118C90.3269 124.378 90.2064 124.447 90.1809 124.542L95.2395 128.852C95.5755 128.738 95.9879 128.339 96.5718 127.681Z" fill="black"/>
<path d="M106.938 124.347C105.835 124.662 104.738 124.572 103.598 124.267C102.483 123.866 101.419 123.275 100.362 122.279C99.3998 121.308 98.6532 120.293 98.268 119.07C97.8574 117.941 97.8779 116.724 98.0884 115.559C98.394 114.418 98.8896 113.329 99.835 112.462C100.539 111.734 101.339 111.031 102.569 110.24L103.077 109.867L105.374 112.316L104.524 113.209L102.421 111.932C102.206 111.976 101.87 112.09 101.508 112.299C101.147 112.507 100.734 112.906 100.322 113.305C99.7636 113.868 99.4648 114.603 99.3816 115.294C99.2729 116.08 99.4748 116.847 99.8413 117.76C100.233 118.578 100.91 119.472 101.803 120.323C102.6 121.147 103.569 121.713 104.469 122.157C105.368 122.602 106.249 122.736 107.086 122.655C107.922 122.573 108.645 122.156 109.324 121.523C109.762 121.029 110.079 120.605 110.251 120.345C110.422 120.086 110.524 119.706 110.506 119.395L109.678 117.543L110.597 116.771L112.255 118.947C112.109 119.112 111.912 119.466 111.665 120.011C111.442 120.461 111.245 120.815 111.048 121.17C110.852 121.525 110.534 121.949 110.096 122.443C109.03 123.38 107.946 124.006 106.938 124.347Z" fill="black"/>
<path d="M118.007 94.8203L118.64 95.4992L117.447 96.911L123.725 103.89L123.342 101.139L122.959 92.6841L122.655 92.2972L121.279 93.2525L120.646 92.5736L124.522 89.1306L125.155 89.8095L124.229 90.9872L131.982 99.6853L133.238 98.7996L133.871 99.4784L129.994 102.921L129.361 102.243L130.504 101.021L124.155 93.9214L124.59 96.4823L124.922 105.127L125.39 105.66L126.792 104.61L127.425 105.289L123.523 108.827L122.89 108.148L123.912 106.996L116.158 98.2974L114.928 99.0882L114.295 98.4093L118.007 94.8203Z" fill="black"/>
<path d="M127.688 86.8213C128.005 86.397 128.323 85.9728 128.614 85.6436C128.906 85.3144 129.173 85.0802 129.439 84.846C130.626 83.8397 131.78 83.3341 132.737 83.1832C133.694 83.0322 134.498 83.4515 135.201 84.2508C135.808 85.0247 136.105 85.8173 135.971 86.6981C135.837 87.5788 135.538 88.3136 134.929 89.0671C135.823 88.39 136.736 88.0236 137.617 88.1577C138.523 88.1968 139.233 88.5906 139.84 89.3645C140.682 90.4049 140.997 91.508 140.812 92.5788C140.627 93.6497 139.821 94.7578 138.394 95.9032C137.861 96.3715 137.258 96.7194 136.776 96.9976C136.294 97.2759 135.838 97.4592 135.502 97.5729C135.166 97.6865 134.95 97.7306 134.925 97.8257L133.109 95.0983L133.883 94.4908L135.814 96.0268C136.461 95.8945 137.279 95.5026 138.078 94.8001C138.732 94.2621 139.1 93.6478 139.063 93.0267C139.051 92.3105 138.823 91.6385 138.121 90.8391C137.678 90.2111 137.064 89.8428 136.373 89.7596C135.682 89.6764 134.89 89.9733 133.995 90.6504L132.955 91.492L132.253 90.6926L133.052 89.9901C133.439 89.6864 133.756 89.2622 133.979 88.8125C134.201 88.3627 134.328 87.8876 134.266 87.3615C134.203 86.8354 133.925 86.3534 133.551 85.8459C133.013 85.1925 132.494 84.8497 131.873 84.887C131.252 84.9242 130.675 85.177 130.047 85.6199C129.634 86.0187 129.342 86.3479 129.05 86.6771C128.759 87.0063 128.777 87.3169 128.821 87.5324L129.631 89.0734L128.711 89.8455L126.742 87.6884C126.983 87.5492 127.275 87.22 127.688 86.8213Z" fill="black"/>
<path d="M140.875 77.5207L139.454 78.2605L138.942 77.5121L140.972 76.0188C141.333 75.8101 141.745 75.4113 142.253 75.038C142.665 74.6393 143.052 74.3355 143.293 74.1964C144.695 73.146 145.849 72.6404 146.755 72.6795C147.662 72.7186 148.466 73.1379 149.074 73.9118C149.586 74.6602 149.788 75.4273 149.774 76.2385C149.761 77.0497 149.367 77.7591 148.783 78.4175C149.703 77.6454 150.685 77.3994 151.592 77.4385C152.498 77.4776 153.277 77.9919 153.789 78.7403C154.536 79.7553 154.756 80.8329 154.546 81.9988C154.335 83.1646 153.314 84.3169 151.645 85.6014C151.258 85.9051 150.897 86.1139 150.535 86.3226C149.692 86.8095 149.279 87.2083 149.064 87.2524L147.034 88.7457L146.522 87.9972L147.613 86.9655L140.875 77.5207ZM146.278 79.7834L147.147 79.2014C147.895 78.6889 148.264 78.0746 148.321 77.4789C148.379 76.8833 148.177 76.1162 147.665 75.3677C147.152 74.6193 146.633 74.2764 146.037 74.2187C145.442 74.1609 144.649 74.4578 143.875 75.0653C143.488 75.3691 143.127 75.5778 142.835 75.907L142.568 76.1412L145.625 80.3213C145.529 80.2958 145.891 80.0871 146.278 79.7834ZM151.063 84.7325C152.078 83.9858 152.687 83.2324 152.796 82.4466C152.905 81.6609 152.703 80.8938 152.19 80.1454C151.583 79.3715 150.994 78.9081 150.398 78.8504C149.708 78.7671 149.01 79.0895 148.116 79.7666C147.101 80.5132 146.473 80.9561 146.207 81.1902L149.471 85.7319C149.687 85.6878 150.194 85.3145 151.063 84.7325Z" fill="black"/>
<path d="M153.436 67.1358L155.173 65.9717L166.109 74.1984L167.168 73.6673L167.68 74.4157L163.576 77.1867L163.064 76.4382L164.25 75.432L161.99 73.604L157.404 76.6533L158.193 79.4111L159.614 78.6713L160.126 79.4197L156.409 81.8869L155.897 81.1385L156.722 80.3409L153.436 67.1358ZM156.102 68.9705L154.759 67.8979L155.328 69.578L157.063 75.6452L161.021 73.0388L156.102 68.9705Z" fill="black"/>
<path d="M170.009 72.1877C168.887 72.1927 167.867 71.8175 166.803 71.2269C165.86 70.5666 164.992 69.6213 164.202 68.3908C163.506 67.1859 163.121 65.9622 163.021 64.815C162.921 63.6678 163.252 62.4323 163.817 61.4634C164.408 60.3994 165.233 59.6018 166.343 58.8807C167.186 58.3937 168.22 57.9576 169.564 57.5029L170.141 57.2501L171.69 60.2116L170.605 60.8377L168.941 59.0675C168.751 59.0166 168.415 59.1303 167.984 59.2185C167.553 59.3067 167.071 59.585 166.589 59.8633C165.866 60.2807 165.402 60.8695 165.129 61.5093C164.83 62.2441 164.722 63.0299 164.872 63.987C165.023 64.9442 165.46 65.9777 166.111 66.9672C166.763 67.9566 167.44 68.851 168.193 69.4603C168.947 70.0697 169.751 70.4889 170.606 70.7181C171.462 70.9472 172.229 70.7454 173.072 70.2584C173.675 69.9105 174.062 69.6068 174.233 69.3471C174.5 69.113 174.696 68.7583 174.773 68.4732L174.496 66.4639L175.555 65.9328L176.516 68.4309C176.275 68.5701 176.008 68.8042 175.691 69.2285C175.399 69.5577 175.107 69.8869 174.72 70.1906C174.428 70.5198 173.946 70.7981 173.464 71.0764C172.329 71.8926 171.131 72.1827 170.009 72.1877Z" fill="black"/>
<path d="M179.758 54.4287C179.848 53.3324 180.128 52.287 180.668 51.4131C181.208 50.5391 181.887 49.9062 182.851 49.3496C183.935 48.7235 185.013 48.503 186.014 48.5675C187.015 48.6321 188.035 49.0073 188.858 49.7371C189.681 50.4669 190.453 51.3868 191.175 52.4967C191.94 53.8222 192.299 55.1408 192.374 56.3831C192.449 57.6254 192.264 58.6962 191.698 59.6652C191.133 60.6341 190.429 61.3621 189.465 61.9187C188.38 62.5448 187.303 62.7653 186.206 62.6753C185.205 62.6107 184.185 62.2356 183.337 61.6008C182.488 60.966 181.621 60.0207 181.02 58.8412L178.395 60.2767L180.988 65.0457L182.478 64.4264L182.87 65.2444L178.342 67.6979L177.95 66.8799L179.206 65.9942L173.698 55.7587L172.233 56.2829L171.746 55.4395L176.154 53.0554L176.641 53.8989L175.385 54.7847L177.769 59.1922L180.489 57.7822C179.958 56.7231 179.738 55.6455 179.758 54.4287ZM181.522 53.1696C181.381 54.456 181.784 55.9902 182.828 57.7976C183.732 59.3641 184.644 60.525 185.803 61.1411C186.962 61.7573 187.963 61.8218 189.142 61.2212C190.201 60.6901 190.767 59.7211 190.787 58.5043C190.808 57.2875 190.404 55.7533 189.455 53.9713C188.551 52.4048 187.64 51.244 186.576 50.6533C185.512 50.0626 184.415 49.9726 183.356 50.5037C182.297 51.0348 181.663 51.8833 181.522 53.1696Z" fill="black"/>
<path d="M200.481 49.694C201.191 50.0878 202.065 50.6275 203.224 51.2437C204.003 51.7579 204.522 52.1008 204.972 52.3231C205.421 52.5455 205.611 52.5964 205.827 52.5523L206.569 52.4455L206.961 53.2635L204.868 54.2306C204.627 54.3698 204.247 54.2679 203.702 54.0201C203.157 53.7723 202.474 53.2835 201.53 52.6232C200.517 51.8425 199.643 51.3027 199.029 50.9344C198.414 50.5661 197.914 50.5338 197.578 50.6475L196.519 51.1786L198.801 55.9662L200.361 55.4674L200.752 56.2854L196.085 58.498L195.693 57.68L197.019 56.9147L192.088 46.4264L190.649 46.8556L190.257 46.0376L194.804 43.8946L195.196 44.7126L193.845 45.5729L196.101 50.4556L197.522 49.7158L198.658 43.1958L197.098 43.6946L196.706 42.8765L200.891 40.9422L201.283 41.7603L200.053 42.551L198.676 49.2102C199.081 49.217 199.747 49.3952 200.481 49.694Z" fill="black"/>
<path d="M209.688 51.4479C208.617 51.2629 207.743 50.7231 206.946 49.8983C206.148 49.0734 205.401 48.0585 204.852 46.6889C204.302 45.3194 204.012 44.1212 204.127 42.9299C204.243 41.7385 204.523 40.6932 205.183 39.7496C205.843 38.8061 206.738 38.1291 207.771 37.693C209.597 36.96 211.125 36.9619 212.569 37.6544C214.013 38.3469 215.159 39.7743 215.961 41.7209C216.511 43.0905 216.775 44.3836 216.66 45.575C216.544 46.7663 216.239 47.9067 215.579 48.8502C214.918 49.7937 214.024 50.4708 212.99 50.9069C211.811 51.5075 210.759 51.633 209.688 51.4479ZM206.088 41.3161C205.852 42.577 206.16 44.0857 206.868 46.0069C207.626 47.738 208.512 48.9939 209.551 49.6796C210.564 50.4603 211.66 50.5504 212.814 50.0447C213.943 49.6341 214.603 48.6906 214.839 47.4297C215.075 46.1688 214.792 44.5651 213.964 42.7135C213.205 40.9824 212.319 39.7265 211.281 39.0408C210.242 38.3551 209.171 38.17 208.017 38.6756C206.958 39.2067 206.324 40.0552 206.088 41.3161Z" fill="black"/>
<path d="M217.046 35.3907L215.537 35.6994L215.266 34.8119L217.644 33.9211C218.075 33.8329 218.557 33.5546 219.134 33.3018C219.711 33.049 220.072 32.8403 220.383 32.8216C221.968 32.2278 223.236 32.0582 224.091 32.2874C224.946 32.5166 225.605 33.1004 225.946 34.1085C226.243 34.9011 226.324 35.7377 226.025 36.4725C225.727 37.2073 225.238 37.8912 224.515 38.3086C225.643 37.898 226.575 37.8421 227.43 38.0713C228.286 38.3005 228.919 38.9793 229.26 39.9874C229.67 41.116 229.65 42.3328 229.085 43.3018C228.494 44.3658 227.238 45.2516 225.317 45.9591C224.86 46.1423 224.524 46.256 224.093 46.3442C223.206 46.6157 222.629 46.8685 222.413 46.9126L220.035 47.8033L219.738 47.0108L221.159 46.271L217.046 35.3907ZM221.662 39.072L222.67 38.731C223.463 38.4341 223.995 37.9658 224.269 37.326C224.542 36.6862 224.53 35.9701 224.138 35.152C223.841 34.3595 223.373 33.8266 222.828 33.5787C222.284 33.3309 221.447 33.4123 220.439 33.7533C219.982 33.9366 219.621 34.1453 219.164 34.3285L218.803 34.5372L220.654 39.4131C220.774 39.3435 221.11 39.2298 221.662 39.072ZM224.83 45.1156C225.958 44.705 226.732 44.0975 227.126 43.3882C227.52 42.6788 227.508 41.9627 227.167 40.9546C226.801 40.0415 226.332 39.5086 225.787 39.2608C225.148 38.9875 224.311 39.0689 223.277 39.5049C222.054 39.8901 221.356 40.2125 221.02 40.3261L222.985 45.538C223.245 45.7094 223.917 45.4821 224.83 45.1156Z" fill="black"/>
<path d="M244.57 25.0427L244.842 25.9303L243.421 26.6701L246.767 37.7523L248.491 37.3994L248.762 38.287L243.773 39.8021L243.501 38.9145L244.897 38.2697L241.481 27.0671L235.725 28.784L239.14 39.9867L240.864 39.6338L241.136 40.5214L236.146 42.0365L235.875 41.1489L237.27 40.5041L233.924 29.422L232.32 29.7052L232.049 28.8176L244.57 25.0427Z" fill="black"/>
<path d="M252.37 36.6056C251.351 36.2304 250.502 35.5957 249.825 34.7013C249.148 33.8068 248.642 32.6528 248.308 31.2391C247.974 29.8254 247.899 28.5832 248.135 27.3223C248.346 26.1564 248.911 25.1874 249.641 24.3644C250.371 23.5414 251.335 22.9848 252.533 22.6947C254.403 22.1773 255.975 22.3946 257.342 23.3723C258.615 24.3244 259.545 25.7959 260.081 27.9767C260.415 29.3903 260.464 30.7276 260.254 31.8935C260.018 33.1544 259.453 34.1234 258.628 34.9209C257.803 35.7185 256.839 36.275 255.736 36.5906C254.417 36.9503 253.39 36.9807 252.37 36.6056ZM250.235 25.9495C249.809 27.1595 249.902 28.7123 250.394 30.6776C250.816 32.5223 251.582 33.8478 252.474 34.6981C253.367 35.5484 254.507 35.854 255.61 35.5384C256.808 35.2483 257.513 34.5203 257.964 33.2153C258.39 32.0053 258.323 30.3575 257.831 28.3922C257.408 26.5475 256.643 25.222 255.75 24.3717C254.858 23.5214 253.812 23.2413 252.614 23.5314C251.46 24.037 250.635 24.8346 250.235 25.9495Z" fill="black"/>
<path d="M266.297 28.7255C266.435 30.4938 266.294 31.7802 265.919 32.8001C265.791 33.2753 265.474 33.6995 265.207 33.9337C264.941 34.1679 264.579 34.3766 264.148 34.4648C263.597 34.6226 263.096 34.5903 262.881 34.6344L262.451 33.1952C262.762 33.1766 263.193 33.0884 263.84 32.9561C264.055 32.912 264.271 32.8678 264.417 32.7032C264.563 32.5386 264.709 32.374 264.785 32.0889C265.433 30.4293 265.221 27.4186 264.295 22.8925L263.961 21.4788L261.762 21.7043L261.585 20.8422L272.146 18.681L272.323 19.5432L270.643 20.1115L272.98 31.5347L274.869 31.3278L275.045 32.1899L269.442 33.3367L269.265 32.4746L271.161 31.8621L268.823 20.4389L265.159 21.1887L265.538 22.8179C265.858 25.0428 266.135 27.0522 266.297 28.7255Z" fill="black"/>
<path d="M275.91 19.0784L274.383 19.0766L274.232 18.1195L283.613 16.559L284.377 19.4118L283.325 19.5373L282.471 17.7808L277.926 18.3964L278.769 23.6133L281.882 23.0213L281.884 21.4939L282.936 21.3684L283.628 25.6281L282.576 25.7536L282.077 24.1939L278.99 24.6909L279.852 30.2183L285.024 29.1598L285.591 26.6635L286.757 26.874L286.798 30.1443L276.579 31.7862L276.403 30.924L277.937 30.5203L275.91 19.0784Z" fill="black"/>
<path d="M291.32 16.6887L288.138 17.1602L288 21.0957L286.733 21.2653L286.434 16.2962L298.008 14.9158L298.833 19.8221L297.686 19.9221L296.581 16.0612L293.355 16.3172L294.805 28.0118L297.479 27.9136L297.535 28.8453L290.481 29.7051L290.425 28.7734L292.796 28.2883L291.32 16.6887Z" fill="black"/>
<path d="M306.6 22.0051L305.668 22.061C305.402 22.2952 305.084 22.7194 304.836 23.2642C304.563 23.904 304.264 24.6388 304.01 25.5891C303.66 26.514 303.482 27.1792 303.26 27.6289C303.037 28.0786 302.866 28.3382 302.65 28.3824L300.14 28.6265L300.084 27.6948L300.756 27.4675C300.972 27.4234 301.118 27.2588 301.315 26.9041C301.512 26.5494 301.759 26.0047 302.058 25.2699C302.382 24.44 302.776 23.7307 303.024 23.186C303.367 22.6667 303.684 22.2425 304.046 22.0337C303.165 21.8996 302.456 21.5058 301.918 20.8524C301.38 20.199 301.083 19.4064 301.027 18.4747C300.908 17.0169 301.309 15.902 302.083 15.2945C302.977 14.6175 304.201 14.2323 305.849 14.1646C306.159 14.1459 306.685 14.0832 307.281 14.1409C307.902 14.1037 308.308 14.1105 308.618 14.0918L311.318 13.8986L311.374 14.8303L309.866 15.139L310.771 26.5859L312.488 26.6386L312.544 27.5703L307.024 28.0263L306.968 27.0947L308.787 26.7673L308.394 21.7728L306.6 22.0051ZM307.362 14.9776C306.767 14.9199 306.336 15.0081 305.835 14.9758C304.903 15.0317 304.111 15.3286 303.698 15.7274C303.165 16.1957 302.962 16.956 303.087 18.0082C303.118 19.0349 303.535 19.7579 304.003 20.2908C304.592 20.7542 305.353 20.9579 306.284 20.902C307.311 20.8715 307.958 20.7392 308.268 20.7206L307.863 15.0099L307.362 14.9776Z" fill="black"/>
<path d="M318.086 14.4897L314.86 14.7457L314.317 18.6744L313.075 18.7489L313.207 13.6917L324.837 13.2429L325.231 18.2374L324.109 18.2424L323.315 14.3629L320.045 14.4033L320.443 26.2234L323.066 26.3153L323.122 27.247L316.03 27.4857L315.974 26.554L318.389 26.2844L318.086 14.4897Z" fill="black"/>
<path d="M333.922 26.4742C332.979 25.814 332.276 25.0146 331.745 23.9556C331.214 22.8966 331.045 21.6288 331.021 20.1965C331.092 18.7896 331.423 17.5542 332.014 16.4902C332.605 15.4262 333.43 14.6286 334.489 14.0975C335.548 13.5664 336.651 13.2509 337.963 13.2968C338.869 13.3359 340.06 13.4514 341.391 13.8079L341.961 13.9607L341.665 17.3447L340.448 17.3242L340.058 14.9788C339.894 14.8328 339.634 14.6614 339.159 14.5341C338.684 14.4068 338.183 14.3745 337.587 14.3167C336.776 14.3031 336.104 14.5304 335.476 14.9733C334.848 15.4162 334.359 16.1001 333.94 16.9044C333.59 17.8293 333.336 18.7797 333.29 20.0915C333.269 21.3083 333.395 22.3605 333.666 23.248C333.938 24.1356 334.425 24.9791 335.083 25.563C335.742 26.1468 336.476 26.4456 337.383 26.4847C338.099 26.4729 338.504 26.4797 338.935 26.3915C339.272 26.2778 339.608 26.1641 339.874 25.93L340.668 24.1057L341.834 24.3162L341.337 26.933C341.026 26.9517 340.69 27.0654 340.164 27.1281C339.733 27.2163 339.277 27.3996 338.871 27.3927C338.44 27.481 337.939 27.4487 337.318 27.486C336.006 27.44 334.866 27.1345 333.922 26.4742Z" fill="black"/>
<path d="M349.528 13.8492L349.489 14.7555L347.625 14.8673L346.942 24.2588L348.65 22.0681L354.481 15.8895L354.514 15.3889L352.873 15.051L352.912 14.1448L358.013 14.4931L357.974 15.3994L356.516 15.518L355.748 27.1276L357.294 27.44L357.255 28.3462L352.059 27.9725L352.098 27.0662L353.746 26.9985L354.359 17.4865L352.798 19.5126L346.845 25.7607L346.762 26.4514L348.524 26.7197L348.485 27.6259L343.193 27.2267L343.232 26.3204L344.785 26.2272L345.553 14.6177L344.102 14.3307L344.141 13.4245L349.528 13.8492Z" fill="black"/>
<path d="M369.806 15.7177L369.414 20.6036L368.127 20.4626L368.024 16.6662L363.905 16.0719L362.586 27.8393L365.798 28.3945L365.664 29.2752L358.351 28.4363L358.486 27.5555L360.514 27.5896L361.757 16.1074L359.856 15.5981L359.99 14.7173L369.806 15.7177Z" fill="black"/>
<path d="M372.954 17.2743L371.554 16.7973L371.688 15.9165L376.688 16.645L376.553 17.5258L374.931 17.4985L374.203 22.498L380.653 23.5134L381.381 18.5139L379.886 18.0114L380.021 17.1307L385.02 17.8591L384.886 18.7399L383.359 18.7381L381.615 30.188L383.04 30.57L382.906 31.4508L377.907 30.7223L378.041 29.8415L379.568 29.8434L380.398 24.4637L373.948 23.4483L373.118 28.828L374.733 29.2608L374.599 30.1416L369.504 29.3877L369.639 28.5069L371.166 28.5087L372.954 17.2743Z" fill="black"/>
<path d="M391.774 19.2615L393.795 19.7012L395.668 33.2406L396.783 33.6412L396.649 34.5219L391.821 33.5338L391.955 32.6531L393.552 32.7754L393.219 29.8343L387.916 28.7189L386.512 31.2966L388.007 31.7991L387.873 32.6799L383.52 31.8191L383.654 30.9383L384.871 30.9588L391.774 19.2615ZM392.366 22.374L392.203 20.7006L391.485 22.2398L388.481 27.7499L393.119 28.6871L392.366 22.374Z" fill="black"/>
<path d="M402.465 30.6821C401.842 32.2468 401.105 33.4754 400.401 34.2034C399.988 34.6021 399.627 34.8108 399.291 34.9245C398.955 35.0382 398.549 35.0314 398.074 34.904C397.504 34.7513 397.029 34.6239 396.769 34.4525L396.961 32.9761C397.246 33.0525 397.721 33.1798 398.292 33.3326C398.482 33.3835 398.697 33.3394 398.913 33.2953C399.128 33.2512 399.274 33.0866 399.541 32.8524C400.778 31.6561 402.042 28.8374 403.144 24.3453L403.526 22.9198L401.53 22.3851L401.785 21.4347L412.29 24.0457L412.035 24.9961L410.248 24.8228L407.433 36.0877L409.188 36.7616L408.959 37.6169L403.327 36.2095L403.556 35.3542L405.507 35.6735L408.322 24.4086L404.59 23.5105L404.157 25.1261C403.718 27.1472 403.088 29.1175 402.465 30.6821Z" fill="black"/>
<path d="M418.536 31.5252C419.936 32.0022 420.975 32.6879 421.557 33.5569C422.139 34.4258 422.239 35.5731 421.813 36.783C421.336 38.1831 420.58 39.1011 419.547 39.5372C418.393 40.0428 417.176 40.0223 415.75 39.6404C415.56 39.5894 415.37 39.5385 415.18 39.4876C414.99 39.4367 414.8 39.3857 414.541 39.2143C413.901 38.941 413.235 38.7628 412.691 38.515L410.245 37.7578L410.474 36.9025L412.021 37.2149L415.405 26.1028L414.056 25.4358L414.285 24.5804L419.366 26.1456L419.137 27.0009L417.281 26.7071L415.97 30.8377L418.536 31.5252ZM414.7 38.2385C414.89 38.2894 415.245 38.4863 415.625 38.5882C416.67 38.8683 417.482 38.8819 418.205 38.4645C418.927 38.0471 419.416 37.3632 419.696 36.3178C419.977 35.2725 419.965 34.5563 419.547 33.8333C419.199 33.2308 418.516 32.742 417.496 32.3669L415.69 31.8831L413.87 37.9143C414.25 38.0161 414.51 38.1876 414.7 38.2385ZM431.334 29.7597L431.105 30.615L429.343 30.3467L425.958 41.4588L427.592 42.2023L427.363 43.0576L422.092 41.4415L422.321 40.5862L424.058 40.9495L427.442 29.8374L425.808 29.0939L426.037 28.2386L431.334 29.7597Z" fill="black"/>
<path d="M439.023 33.7553L437.699 32.9932L438.024 32.1634L442.743 33.9372L442.419 34.7671L440.873 34.4547L439.099 39.1741L445.288 41.5454L447.062 36.826L445.738 36.0639L446.062 35.2341L450.782 37.0079L450.457 37.8377L449.007 37.5508L444.861 48.4592L446.211 49.1263L445.886 49.9561L441.167 48.1823L441.491 47.3524L443.012 47.7599L444.982 42.6858L438.793 40.3145L436.823 45.3885L438.241 46.1761L437.917 47.0059L433.128 45.1116L433.452 44.2818L434.973 44.6892L439.023 33.7553Z" fill="black"/>
<path d="M457.015 39.5946L458.934 40.4144L457.916 54.0961L458.86 54.7564L458.536 55.5862L453.988 53.5527L454.312 52.7229L455.807 53.2254L456.191 50.2725L451.168 48.1117L449.27 50.2515L450.689 51.0391L450.365 51.8689L446.266 50.0578L446.59 49.228L447.731 49.5335L457.015 39.5946ZM456.96 42.8394L457.203 41.1729L456.13 42.5152L452.018 47.2191L456.401 49.1066L456.96 42.8394Z" fill="black"/>
<path d="M470.726 47.343L469.004 46.1685L469.423 45.3641L473.8 47.6572L472.294 56.3189L471.752 58.7202L473.358 56.9096L479.525 50.6174L483.902 52.9105L483.483 53.7149L481.538 52.9901L477.488 63.924L478.855 64.9016L478.436 65.706L473.705 63.2159L474.124 62.4116L475.689 63.0345L478.804 55.2113L480.126 51.7969L478.159 53.8163L470.925 61.0452L469.861 60.4545L471.355 51.0766L472.013 47.484L470.076 50.5301L465.517 57.6607L467.075 58.6893L466.656 59.4937L462.374 57.226L462.793 56.4216L464.263 57.0191L470.726 47.343Z" fill="black"/>
<path d="M490.096 56.4037L491.844 57.4832L489.255 70.9475L490.198 71.6077L489.779 72.4121L485.548 69.9544L485.967 69.15L487.437 69.7475L488.081 66.9661L483.426 64.191L481.269 66.1594L482.541 67.1115L482.122 67.9159L478.341 65.6805L478.76 64.8762L479.875 65.2768L490.096 56.4037ZM489.661 59.5466L490.094 57.931L488.857 59.1274L484.156 63.3679L488.291 65.8002L489.661 59.5466Z" fill="black"/>
<path d="M498.365 62.7953L497.308 61.7991L497.822 61.0202L499.899 62.3916C500.254 62.5885 500.678 62.9059 501.033 63.1027C501.647 63.4711 502.192 63.7189 502.711 64.0617C504.174 65.0648 505.136 66.0356 505.382 67.0182C505.628 68.0009 505.443 69.0717 504.757 70.1103C504.218 70.9842 503.564 71.5221 502.746 71.9141C501.928 72.306 501.091 72.3874 500.211 72.2533C499.33 72.1191 498.405 71.7694 497.531 71.2297C497.176 71.0328 496.917 70.8614 496.588 70.5695C496.233 70.3726 496.068 70.2266 495.999 70.1061L493.745 73.5764L495.771 75.1379L495.257 75.9168L490.133 72.6088L490.648 71.8299L492.092 72.5224L498.365 62.7953ZM498.045 70.4508C498.919 70.9905 499.68 71.1942 500.542 71.0178C501.404 70.8414 502.178 70.2339 502.914 69.0053C503.454 68.1314 503.683 67.2761 503.456 66.604C503.229 65.9319 502.691 65.2785 501.747 64.6183C501.392 64.4214 501.038 64.2245 500.588 64.0021C500.328 63.8307 500.138 63.7798 500.138 63.7798L496.513 69.3272C496.842 69.6191 497.266 69.9365 498.045 70.4508Z" fill="black"/>
<path d="M502.774 80.1721C502.338 79.1385 502.238 77.9913 502.424 76.9205C502.609 75.8496 503.155 74.5701 503.987 73.3669C504.793 72.2588 505.738 71.3917 506.797 70.8606C507.856 70.3295 509.029 70.1344 510.22 70.2499C511.412 70.3654 512.527 70.7661 513.54 71.5468C514.319 72.0611 515.211 72.9114 516.078 73.8567L516.572 74.2946L514.452 76.8841L513.414 76.1984L514.405 74.0195C514.361 73.804 514.127 73.5375 513.918 73.176C513.709 72.8145 513.19 72.4717 512.671 72.1288C511.987 71.64 511.322 71.4617 510.511 71.4481C509.699 71.4345 508.907 71.7314 508.158 72.2438C507.41 72.7563 506.585 73.5538 505.925 74.4973C505.265 75.4408 504.794 76.4353 504.445 77.3602C504.19 78.3105 504.056 79.1913 504.327 80.0788C504.599 80.9664 505.042 81.5944 505.821 82.1087C506.34 82.4515 506.764 82.7689 507.144 82.8708C507.524 82.9726 507.809 83.049 508.12 83.0304L509.832 81.9614L510.725 82.8117L508.783 84.736C508.524 84.5646 508.144 84.4627 507.694 84.2404C507.219 84.113 506.864 83.9161 506.389 83.7888C506.034 83.5919 505.585 83.3696 505.065 83.0267C504.078 82.1509 503.211 81.2056 502.774 80.1721Z" fill="black"/>
<path d="M530.034 84.1151L529.425 84.8685L527.867 83.8399L521.945 91.1148L524.608 90.3004L532.893 88.6499L533.211 88.2256L532.109 87.0138L532.719 86.2604L536.72 89.5734L536.111 90.3268L534.787 89.5647L527.38 98.5806L528.507 99.6974L527.923 100.356L523.922 97.0428L524.506 96.3844L525.899 97.267L531.941 89.9226L529.494 90.6928L520.993 92.3875L520.555 92.8813L521.751 94.1186L521.168 94.777L517.071 91.4385L517.655 90.7801L518.953 91.6372L526.36 82.6213L525.328 81.53L525.938 80.7766L530.034 84.1151Z" fill="black"/>
<path d="M539.512 92.4602C540.056 92.708 540.385 92.9999 540.74 93.1968C541.095 93.3937 541.424 93.6856 541.684 93.857C542.836 94.8788 543.583 95.8937 543.828 96.8763C544.074 97.8589 543.845 98.7142 543.141 99.4422C542.437 100.17 541.714 100.588 540.807 100.549C539.971 100.63 539.115 100.401 538.337 99.8864C539.134 100.711 539.621 101.555 539.702 102.391C539.784 103.228 539.46 104.058 538.876 104.716C538 105.704 536.941 106.235 535.845 106.145C534.723 106.15 533.564 105.534 532.152 104.341C531.563 103.877 531.19 103.37 530.817 102.862C530.443 102.355 530.235 101.994 530 101.727C529.861 101.486 529.722 101.245 529.653 101.125L532.076 98.922L532.735 99.5058L531.553 101.634C531.781 102.306 532.318 102.959 533.046 103.664C533.705 104.248 534.25 104.495 534.991 104.388C535.638 104.256 536.335 103.934 536.945 103.18C537.503 102.617 537.681 101.952 537.765 101.261C537.848 100.57 537.335 99.8219 536.512 99.0921L535.525 98.2163L536.229 97.4883L537.052 98.2181C537.476 98.5355 537.9 98.8529 538.376 98.9802C538.851 99.1075 539.351 99.1398 539.903 98.982C540.455 98.8243 540.841 98.5205 541.279 98.0267C541.863 97.3683 542.111 96.8235 541.979 96.177C541.941 95.5558 541.568 95.0484 540.91 94.4645C540.511 94.0521 540.156 93.8552 539.707 93.6329C539.352 93.436 539.041 93.4546 538.826 93.4987L537.424 94.5491L536.506 93.7938L538.334 91.5335C538.638 91.9204 538.992 92.1173 539.512 92.4602Z" fill="black"/>
<path d="M550.652 104.103L549.766 102.847L550.445 102.214L552.205 104.01C552.534 104.302 552.933 104.714 553.426 105.152C553.92 105.59 554.249 105.882 554.414 106.028C555.61 107.265 556.357 108.28 556.413 109.212C556.589 110.074 556.265 110.904 555.561 111.632C554.882 112.265 554.184 112.587 553.443 112.694C552.701 112.801 551.846 112.571 551.067 112.057C551.959 112.907 552.446 113.751 552.502 114.683C552.558 115.614 552.259 116.349 551.555 117.077C550.705 117.97 549.576 118.38 548.48 118.29C547.289 118.175 545.965 117.413 544.509 116.004C544.18 115.712 543.876 115.325 543.642 115.059C543.009 114.38 542.61 113.967 542.446 113.821L540.686 112.026L541.365 111.393L542.637 112.345L550.652 104.103ZM545.118 115.251C546.011 116.101 546.79 116.615 547.601 116.629C548.412 116.642 549.11 116.32 549.789 115.687C550.467 115.054 550.766 114.319 550.729 113.698C550.692 113.077 550.274 112.354 549.477 111.529C548.584 110.679 548.021 110.121 547.787 109.854L543.878 113.798C543.922 114.013 544.416 114.451 545.118 115.251ZM549.339 109.761L550.067 110.465C550.726 111.049 551.34 111.417 551.961 111.38C552.582 111.343 553.28 111.02 553.864 110.362C554.448 109.704 554.79 109.184 554.753 108.563C554.716 107.942 554.298 107.219 553.57 106.515C553.241 106.223 552.912 105.931 552.488 105.614L552.159 105.322L548.516 109.031C548.706 109.082 548.941 109.348 549.339 109.761Z" fill="black"/>
<path d="M562.953 114.835L564.383 116.338L558 128.378L558.651 129.368L557.972 130.001L554.668 126.365L555.347 125.732L556.5 126.754L557.998 124.202L554.296 120.154L551.626 121.374L552.607 122.655L551.928 123.288L548.928 120.04L549.607 119.407L550.525 120.162L562.953 114.835ZM561.473 117.697L562.381 116.209L560.84 117.018L555.139 119.667L558.373 123.182L561.473 117.697Z" fill="black"/>
<path d="M560.397 131.975C560.202 130.802 560.387 129.731 560.883 128.642C561.379 127.552 562.159 126.539 563.32 125.628C564.386 124.691 565.54 124.186 566.738 123.896C567.936 123.606 569.128 123.721 570.243 124.122C571.358 124.522 572.301 125.183 573.143 126.223C573.75 126.997 574.402 127.986 575.003 129.166L575.255 129.743L572.572 131.774L571.8 130.854L573.336 128.923C573.292 128.707 573.273 128.397 573.065 128.035C572.856 127.674 572.578 127.192 572.179 126.779C571.641 126.126 571.027 125.758 570.266 125.554C569.506 125.35 568.669 125.432 567.782 125.703C566.894 125.975 565.93 126.531 565.01 127.303C564.09 128.075 563.361 128.898 562.846 129.677C562.307 130.551 562.077 131.407 562.064 132.218C562.05 133.029 562.347 133.821 562.955 134.595C563.423 135.128 563.752 135.42 564.107 135.617C564.461 135.814 564.721 135.985 565.032 135.967L566.927 135.354L567.579 136.344L565.264 137.761C565.099 137.615 564.77 137.323 564.346 137.005C563.896 136.783 563.567 136.491 563.238 136.199C562.909 135.907 562.484 135.59 562.111 135.082C561.123 134.207 560.592 133.148 560.397 131.975Z" fill="black"/>
<path d="M579.421 138.905C580.568 138.805 581.544 138.965 582.469 139.315C583.394 139.664 584.217 140.394 584.824 141.168C585.571 142.183 585.937 143.096 586.063 144.148C586.093 145.175 585.934 146.151 585.368 147.12C584.803 148.089 584.048 149.007 582.913 149.823C581.752 150.734 580.477 151.309 579.279 151.6C578.081 151.89 576.984 151.8 575.87 151.399C574.755 150.998 574.001 150.389 573.324 149.495C572.577 148.48 572.141 147.446 572.016 146.394C571.89 145.342 572.145 144.391 572.615 143.397C573.18 142.428 573.936 141.51 574.976 140.668L573.179 138.252L568.828 141.567L569.662 143.013L568.914 143.526L565.832 139.441L566.581 138.928L567.708 140.045L576.918 133.04L576.153 131.715L576.927 131.107L579.939 135.072L579.165 135.679L578.038 134.563L574.074 137.575L575.871 139.991C577.24 139.442 578.343 139.126 579.421 138.905ZM581.041 140.46C579.799 140.535 578.309 141.154 576.641 142.439C575.213 143.584 574.217 144.641 573.791 145.851C573.365 147.061 573.491 148.113 574.237 149.128C575.009 150.048 575.909 150.493 577.176 150.323C578.419 150.249 579.839 149.509 581.482 148.319C582.909 147.174 583.906 146.117 584.332 144.907C584.758 143.697 584.632 142.645 583.955 141.75C583.278 140.856 582.284 140.386 581.041 140.46Z" fill="black"/>
<path d="M587.37 158.657C587.166 159.417 586.696 160.412 586.175 161.596C585.756 162.401 585.577 163.066 585.381 163.42C585.279 163.801 585.177 164.181 585.246 164.301L585.474 164.973L584.725 165.486L583.397 163.602C583.258 163.361 583.264 162.955 583.512 162.411C583.76 161.866 584.084 161.036 584.554 160.041C585.171 158.882 585.52 157.958 585.794 157.318C586.067 156.678 586.004 156.152 585.89 155.816L585.239 154.826L580.869 157.832L581.583 159.347L580.834 159.86L577.994 155.635L578.742 155.123L579.749 156.309L589.333 149.812L588.688 148.417L589.436 147.904L592.207 152.008L591.459 152.521L590.452 151.334L585.987 154.314L586.848 155.665L593.432 155.8L592.692 154.379L593.441 153.867L595.978 157.704L595.229 158.216L594.197 157.125L587.448 156.844C587.631 157.301 587.574 157.897 587.37 158.657Z" fill="black"/>
<path d="M586.997 168.03C587.062 167.028 587.342 165.983 588.097 165.065C588.758 164.121 589.703 163.254 590.908 162.559C592.138 161.768 593.362 161.383 594.509 161.283C595.751 161.208 596.822 161.393 597.817 161.863C598.811 162.334 599.634 163.063 600.26 164.148C601.234 165.835 601.543 167.344 601.015 168.934C600.513 170.429 599.345 171.746 597.512 172.884C596.282 173.675 595.058 174.06 593.79 174.23C592.548 174.304 591.477 174.119 590.388 173.623C589.393 173.153 588.596 172.328 587.944 171.339C587.248 170.134 587.028 169.056 586.997 168.03ZM596.535 162.844C595.319 162.824 593.759 163.323 592.046 164.392C590.455 165.391 589.363 166.423 588.842 167.607C588.226 168.766 588.351 169.818 588.978 170.903C589.629 171.892 590.598 172.458 591.815 172.478C593.127 172.524 594.591 172 596.304 170.931C597.896 169.931 598.987 168.9 599.508 167.715C600.004 166.626 599.999 165.504 599.373 164.419C598.721 163.43 597.847 162.89 596.535 162.844Z" fill="black"/>
<path d="M604.027 172.898L603.503 171.434L604.346 170.947L605.599 173.116C605.807 173.477 606.086 173.959 606.459 174.467C606.832 174.974 607.041 175.336 607.18 175.577C607.989 177.118 608.4 178.246 608.24 179.222C608.081 180.198 607.617 180.787 606.748 181.369C606.025 181.786 605.163 181.962 604.378 181.854C603.592 181.745 602.883 181.351 602.275 180.577C602.901 181.662 603.078 182.524 602.918 183.5C602.784 184.381 602.2 185.039 601.356 185.526C600.272 186.152 599.125 186.252 598.01 185.852C596.895 185.451 595.863 184.36 594.82 182.552C594.611 182.191 594.428 181.734 594.219 181.373C593.732 180.529 593.479 179.952 593.41 179.832L592.157 177.663L592.975 177.271L593.861 178.527L604.027 172.898ZM595.568 182.04C596.194 183.124 596.827 183.803 597.587 184.007C598.348 184.21 599.089 184.104 599.933 183.617C600.776 183.13 601.24 182.541 601.392 181.971C601.545 181.4 601.369 180.538 600.812 179.574C600.186 178.49 599.769 177.767 599.63 177.526L594.74 180.188C594.828 180.619 595.081 181.196 595.568 182.04ZM601.15 177.933L601.612 178.872C602.029 179.595 602.618 180.058 603.188 180.211C603.853 180.389 604.5 180.257 605.343 179.77C606.066 179.352 606.504 178.859 606.657 178.288C606.81 177.718 606.608 176.951 606.051 175.987C605.843 175.626 605.539 175.239 605.356 174.782L605.147 174.421L600.594 176.969C600.733 177.21 600.872 177.451 601.15 177.933Z" fill="black"/>
<path d="M618.586 198.393L617.768 198.785L616.908 197.434L606.489 202.485L607.057 204.165L606.239 204.557L603.957 199.77L604.775 199.378L605.635 200.729L616.149 195.703L613.519 190.313L602.98 195.433L603.548 197.114L602.73 197.506L600.423 192.813L601.241 192.421L602.031 193.651L612.45 188.6L611.951 187.041L612.769 186.649L618.586 198.393Z" fill="black"/>
<path d="M608.282 207.957C608.467 206.886 609.007 206.012 609.737 205.189C610.562 204.391 611.576 203.645 612.851 203.07C614.126 202.494 615.419 202.23 616.61 202.345C617.801 202.461 618.847 202.741 619.79 203.401C620.734 204.061 621.411 204.956 621.847 205.989C622.58 207.816 622.673 209.368 621.886 210.787C621.193 212.231 619.766 213.377 617.819 214.179C616.449 214.729 615.156 214.993 613.965 214.878C612.774 214.762 611.633 214.457 610.69 213.797C609.746 213.136 609.069 212.242 608.538 211.183C608.223 210.08 608.027 208.907 608.282 207.957ZM618.439 204.261C617.178 204.025 615.67 204.334 613.723 205.137C611.992 205.895 610.736 206.781 610.05 207.82C609.365 208.858 609.18 209.929 609.685 211.083C610.191 212.237 611.039 212.872 612.3 213.108C613.561 213.344 615.165 213.061 617.017 212.233C618.748 211.474 620.004 210.588 620.689 209.55C621.375 208.511 621.465 207.415 621.054 206.286C620.549 205.132 619.7 204.497 618.439 204.261Z" fill="black"/>
<path d="M618.192 220.391C616.468 220.743 615.105 220.888 614.129 220.728C613.654 220.601 613.179 220.473 612.944 220.207C612.615 219.915 612.381 219.648 612.198 219.192C611.945 218.615 611.857 218.184 611.838 217.873L613.233 217.228C613.252 217.539 613.435 217.996 613.688 218.573C613.732 218.788 613.897 218.934 614.061 219.08C614.226 219.226 614.416 219.277 614.701 219.353C616.437 219.717 619.455 219.099 623.658 217.475L625.028 216.926L624.466 214.84L625.379 214.473L629.195 224.561L628.282 224.928L627.473 223.387L616.592 227.499L617.04 229.249L616.153 229.521L614.144 224.093L615.032 223.822L615.885 225.578L626.765 221.466L625.464 217.959L623.879 218.553C621.786 219.52 619.916 220.038 618.192 220.391Z" fill="black"/>
<path d="M629.273 228.452L628.964 226.944L629.852 226.672L632.826 235.719L630.182 236.844L629.841 235.836L631.363 234.716L630.006 230.278L624.991 231.888L626.04 234.818L627.618 234.629L627.959 235.638L623.832 236.976L623.491 235.968L624.911 235.228L623.983 232.229L618.727 233.979L620.553 238.95L623.151 239.136L623.156 240.258L619.879 240.704L616.608 230.864L617.495 230.593L618.14 231.988L629.273 228.452Z" fill="black"/>
<path d="M634.059 243.282L633.036 240.258L629.043 240.716L628.753 239.517L633.615 238.478L636.814 249.724L632.015 251.29L631.7 250.187L635.308 248.506L634.526 245.342L623.184 248.516L623.713 251.103L622.825 251.374L620.888 244.54L621.776 244.269L622.597 246.526L634.059 243.282Z" fill="black"/>
<path d="M631.118 259.198L630.942 258.336C630.708 258.07 630.233 257.942 629.567 257.764C628.902 257.586 628.116 257.477 627.141 257.318C626.165 257.158 625.5 256.98 625.024 256.852C624.549 256.725 624.29 256.554 624.246 256.338L623.691 253.847L624.553 253.67L624.875 254.368C624.945 254.488 625.204 254.66 625.559 254.857C625.939 254.959 626.51 255.111 627.244 255.41C628.1 255.639 628.86 255.843 629.525 256.021C630.07 256.269 630.52 256.491 630.849 256.783C630.888 255.877 631.187 255.142 631.65 254.553C632.234 253.895 632.957 253.478 633.819 253.301C635.233 252.967 636.399 253.178 637.126 253.882C637.854 254.586 638.455 255.766 638.833 257.395C638.947 257.731 639.01 258.257 639.073 258.783C639.11 259.404 639.198 259.835 639.312 260.171L639.936 262.783L639.048 263.055L638.429 261.565L627.12 264.238L627.377 265.937L626.541 266.018L625.223 260.674L626.085 260.498L626.653 262.178L631.446 261.018L631.118 259.198ZM638.115 258.934C638.053 258.408 637.99 257.882 637.902 257.451C637.656 256.468 637.308 255.866 636.814 255.428C636.32 254.99 635.509 254.976 634.526 255.222C633.544 255.468 632.821 255.886 632.453 256.5C632.084 257.114 631.976 257.9 632.222 258.883C632.468 259.865 632.6 260.512 632.739 260.753L638.299 259.391L638.115 258.934Z" fill="black"/>
<path d="M640.302 269.4L639.615 266.262L635.603 266.41L635.408 265.237L640.359 264.628L642.601 276.026L637.714 277.161L637.518 275.988L641.24 274.643L640.769 271.461L629.181 273.652L629.495 276.283L628.633 276.459L627.247 269.467L628.109 269.291L628.81 271.617L640.302 269.4Z" fill="black"/>
<path d="M630.94 286.855C631.41 285.861 632.165 284.943 633.129 284.386C634.118 283.735 635.342 283.35 636.73 283.11C638.093 282.966 639.405 283.012 640.494 283.508C641.609 283.909 642.527 284.664 643.299 285.584C644.072 286.504 644.482 287.632 644.652 288.9C644.803 289.857 644.808 290.979 644.641 292.36L644.583 292.956L641.262 293.186L641.093 291.919L643.35 291.097C643.496 290.933 643.598 290.553 643.605 290.147C643.611 289.742 643.669 289.146 643.511 288.594C643.404 287.853 643.082 287.155 642.519 286.597C641.955 286.038 641.246 285.645 640.296 285.39C639.345 285.135 638.319 285.166 637.076 285.24C635.904 285.435 634.921 285.681 633.982 286.143C633.044 286.604 632.391 287.142 631.902 287.826C631.413 288.51 631.279 289.391 631.36 290.228C631.492 290.874 631.555 291.4 631.764 291.762C631.878 292.098 632.112 292.364 632.346 292.631L634.247 293.14L634.226 294.357L631.507 294.239C631.463 294.024 631.375 293.593 631.097 293.111C630.914 292.654 630.705 292.293 630.617 291.862C630.529 291.431 630.345 290.974 630.308 290.353C630.328 289.136 630.444 287.945 630.94 286.855Z" fill="black"/>
<path d="M645.842 300.423L644.91 300.479L644.488 298.634L635.095 299.479L637.482 300.832L644.562 305.581L645.088 305.518L645.141 303.8L646.073 303.744L646.536 308.859L645.604 308.915L645.27 307.502L633.677 308.572L633.65 310.194L632.718 310.25L632.281 305.04L633.212 304.984L633.59 306.613L643.079 305.794L640.761 304.562L633.611 299.692L632.99 299.73L632.938 301.447L632.006 301.503L631.568 296.293L632.5 296.237L632.809 297.746L644.402 296.676L644.499 295.174L645.43 295.118L645.842 300.423Z" fill="black"/>
<path d="M647.123 320.73L642.249 321.054L642.175 319.812L645.934 319.087L645.907 315.006L634.156 315.524L634.102 318.769L633.17 318.825L632.792 311.492L633.724 311.436L634 313.445L645.561 312.876L645.69 310.874L646.622 310.818L647.123 320.73Z" fill="black"/>
<path d="M646.042 324.006L646.234 322.529L647.14 322.568L647.102 327.651L646.196 327.612L646.008 326.034L641.02 326.021L640.981 332.632L645.968 332.644L646.16 331.167L647.066 331.206L647.054 336.194L646.148 336.155L645.934 334.672L634.311 334.715L634.119 336.191L633.213 336.152L633.225 331.165L634.131 331.204L634.32 332.782L639.713 332.801L639.753 326.191L634.359 326.172L634.142 327.743L633.236 327.704L633.178 322.596L634.085 322.635L634.298 324.118L646.042 324.006Z" fill="black"/>
<path d="M647.084 342.925L647.05 344.953L633.977 348.885L633.767 350.051L632.86 350.012L633.063 345.075L633.969 345.115L634.062 346.667L636.915 345.904L637.15 340.466L634.47 339.443L634.253 341.014L633.347 340.975L633.517 336.539L634.423 336.578L634.523 337.725L647.084 342.925ZM644.034 344.043L645.664 343.665L643.979 343.111L638.049 340.911L637.803 345.632L644.034 344.043Z" fill="black"/>
<path d="M637.449 355.316C635.738 354.858 634.528 354.431 633.68 353.797C633.255 353.479 632.926 353.187 632.812 352.851C632.604 352.49 632.611 352.084 632.617 351.679C632.675 351.083 632.682 350.677 632.853 350.418L634.381 350.42C634.304 350.705 634.272 351.205 634.214 351.801C634.163 351.991 634.208 352.207 634.347 352.448C634.391 352.663 634.555 352.809 634.815 352.98C636.157 354.053 639.224 354.773 643.704 355.159L645.206 355.255L645.576 353.114L646.482 353.153L645.538 363.9L644.632 363.861L644.589 362.118L633.056 361.065L632.667 362.896L631.761 362.857L632.288 357.091L633.194 357.13L633.185 359.063L644.718 360.116L645.021 356.326L643.329 356.178C641.041 355.973 639.09 355.654 637.449 355.316Z" fill="black"/>
<path d="M639.09 371.238C638.898 372.714 638.377 373.899 637.483 374.576C636.683 375.278 635.606 375.499 634.319 375.358C632.938 375.191 631.899 374.506 631.248 373.516C630.596 372.527 630.427 371.259 630.619 369.783C630.67 369.593 630.72 369.403 630.676 369.187C630.632 368.972 630.778 368.807 630.855 368.522C631.033 367.857 631.116 367.166 631.269 366.596L631.646 364.048L632.527 364.183L632.499 365.805L644.07 367.479L644.572 365.984L645.453 366.118L644.648 371.403L643.767 371.269L643.655 369.405L639.347 368.76L639.09 371.238ZM631.856 368.586C631.805 368.776 631.703 369.157 631.696 369.562C631.511 370.633 631.713 371.4 632.251 372.054C632.789 372.707 633.498 373.101 634.594 373.191C635.57 373.35 636.432 373.174 636.965 372.706C637.593 372.263 637.892 371.528 638.077 370.457L638.371 368.601L632.085 367.731C631.983 368.111 631.907 368.396 631.856 368.586ZM642.796 383.639L641.915 383.504L641.968 381.787L630.492 380.138L630.034 381.849L629.153 381.715L629.888 376.31L630.769 376.444L630.716 378.161L642.192 379.81L642.65 378.099L643.531 378.234L642.796 383.639Z" fill="black"/>
<path d="M639.984 391.849L640.557 390.474L641.412 390.703L640.278 395.696L639.422 395.467L639.545 393.87L634.647 392.761L633.226 399.205L638.124 400.314L638.696 398.939L639.551 399.168L638.443 404.066L637.587 403.837L637.684 402.335L626.317 399.9L625.84 401.3L624.985 401.071L626.094 396.173L626.949 396.403L626.852 397.905L632.155 399.02L633.576 392.576L628.273 391.461L627.745 393.051L626.89 392.822L628.024 387.829L628.879 388.058L628.782 389.56L639.984 391.849Z" fill="black"/>
<path d="M636.952 410.389L636.417 412.385L622.84 413.636L622.345 414.725L621.49 414.496L622.668 409.719L623.523 409.948L623.306 411.52L626.196 411.377L627.501 406.125L625.044 404.652L624.447 406.121L623.591 405.892L624.642 401.59L625.497 401.82L625.382 403.011L636.952 410.389ZM633.795 410.765L635.538 410.723L634.024 409.91L628.686 406.646L627.559 411.233L633.795 410.765Z" fill="black"/>
<path d="M631.427 425.308L632.341 423.414L633.171 423.738L631.613 428.413L622.81 428.193L620.402 428.058L622.505 429.334L629.673 434.514L628.114 439.189L627.285 438.865L627.724 436.844L616.212 434.574L615.519 436.018L614.689 435.694L616.375 430.543L617.205 430.868L616.867 432.509L625.116 434.413L628.683 435.166L626.372 433.528L618.121 427.446L618.522 426.331L627.997 426.324L631.742 426.411L628.379 424.898L620.632 421.498L619.863 423.228L619.033 422.903L620.566 418.323L621.396 418.647L621.083 420.193L631.427 425.308Z" fill="black"/>
<path d="M625.495 445.923L624.771 447.868L611.152 447.376L610.586 448.345L609.757 448.021L611.6 443.422L612.43 443.746L612.022 445.267L614.931 445.435L616.902 440.361L614.642 438.533L613.854 439.952L613.024 439.627L614.645 435.478L615.475 435.802L615.265 436.968L625.495 445.923ZM622.251 445.868L623.943 446.016L622.575 445.038L617.725 441.091L616.027 445.525L622.251 445.868Z" fill="black"/>
<path d="M620.427 454.954L621.259 453.751L622.089 454.075L621.072 456.349C620.849 456.799 620.748 457.179 620.551 457.534C620.277 458.174 620.125 458.744 619.877 459.289C619.133 460.923 618.353 461.936 617.414 462.397C616.501 462.764 615.474 462.794 614.195 462.248C613.295 461.803 612.611 461.314 612.099 460.566C611.587 459.817 611.385 459.05 611.329 458.119C611.273 457.187 611.527 456.237 611.972 455.337C612.169 454.982 612.245 454.697 612.442 454.343C612.639 453.988 612.69 453.798 612.811 453.728L609.067 452.114L607.86 454.337L607.03 454.013L609.534 448.471L610.364 448.795L609.861 450.29L620.427 454.954ZM612.872 455.782C612.427 456.681 612.413 457.492 612.685 458.38C612.956 459.268 613.71 459.877 614.989 460.423C615.984 460.894 616.795 460.907 617.372 460.655C618.069 460.332 618.558 459.648 619.028 458.654C619.225 458.299 619.327 457.919 619.454 457.444C619.531 457.159 619.582 456.969 619.607 456.874L613.495 454.217C613.418 454.502 613.17 455.047 612.872 455.782Z" fill="black"/>
<path d="M603.96 462.052C604.924 461.495 606.027 461.18 607.149 461.175C608.365 461.195 609.601 461.526 610.855 462.168C612.109 462.809 613.122 463.59 613.774 464.579C614.52 465.594 614.836 466.697 614.936 467.845C615.036 468.992 614.825 470.158 614.209 471.317C613.765 472.216 613.104 473.16 612.298 474.268L611.955 474.787L609.023 473.187L609.518 472.097L611.894 472.734C612.11 472.69 612.376 472.455 612.668 472.126C612.96 471.797 613.182 471.347 613.525 470.828C613.919 470.119 614.002 469.428 613.826 468.566C613.719 467.824 613.302 467.101 612.694 466.327C612.061 465.648 611.213 465.014 610.054 464.398C608.964 463.902 607.944 463.527 606.969 463.367C605.993 463.208 605.061 463.263 604.243 463.655C603.45 463.952 602.892 464.516 602.447 465.415C602.174 466.055 601.952 466.505 601.945 466.91C601.843 467.29 601.862 467.601 601.975 467.937L603.311 469.415L602.651 470.359L600.434 468.746C600.511 468.461 600.613 468.081 600.74 467.606C600.867 467.131 600.874 466.725 601.001 466.25C601.103 465.87 601.351 465.325 601.599 464.78C602.215 463.621 602.97 462.703 603.96 462.052Z" fill="black"/>
<path d="M604.332 489.551L603.553 489.037L604.322 487.307L596.216 482.589L597.392 485.043L600.335 493.064L600.785 493.286L601.858 491.944L602.637 492.458L600.033 496.853L599.254 496.339L599.826 494.964L589.782 489.115L588.83 490.388L588.025 489.969L590.654 485.479L591.459 485.898L590.741 487.437L598.917 492.276L597.69 490.012L594.772 481.896L594.157 481.528L593.059 482.965L592.255 482.546L594.91 477.961L595.714 478.38L595.116 479.85L605.161 485.699L606.088 484.521L606.866 485.035L604.332 489.551Z" fill="black"/>
<path d="M597.614 500.177C597.367 500.722 597.239 501.197 597.042 501.552C596.846 501.907 596.649 502.261 596.477 502.521C595.62 503.819 594.77 504.712 593.857 505.078C592.944 505.445 592.037 505.406 591.163 504.866C590.29 504.326 589.872 503.603 589.696 502.741C589.519 501.879 589.628 501.093 589.978 500.168C589.317 501.112 588.544 501.719 587.681 501.896C586.819 502.072 586.034 501.963 585.255 501.449C584.121 500.738 583.444 499.844 583.344 498.696C583.218 497.644 583.575 496.314 584.603 494.756C584.972 494.142 585.41 493.648 585.848 493.154C586.26 492.755 586.647 492.451 586.913 492.217C587.18 491.983 587.326 491.819 587.421 491.844L589.941 493.843L589.427 494.622L587.127 493.701C586.525 494.048 585.966 494.612 585.306 495.555C584.817 496.239 584.734 496.93 584.866 497.576C584.999 498.223 585.562 498.781 586.436 499.321C587.05 499.689 587.715 499.868 588.457 499.761C589.199 499.654 589.852 499.116 590.392 498.242L591.103 497.109L591.977 497.648L591.437 498.522C591.12 498.947 590.993 499.422 590.865 499.897C590.833 500.397 590.896 500.924 591.079 501.38C591.262 501.837 591.661 502.249 592.18 502.592C592.864 503.081 593.555 503.164 594.106 503.006C594.658 502.848 595.191 502.38 595.68 501.696C595.997 501.272 596.219 500.822 596.226 500.417C596.328 500.036 596.309 499.726 596.17 499.485L594.879 498.222L595.539 497.279L598.022 498.657C597.964 499.253 597.767 499.607 597.614 500.177Z" fill="black"/>
<path d="M587.827 513.139L588.943 512.012L589.722 512.527L588.256 514.578C587.964 514.907 587.742 515.357 587.373 515.971C587.03 516.491 586.834 516.845 586.662 517.105C585.685 518.473 584.739 519.34 583.852 519.611C582.964 519.883 582.083 519.749 581.33 519.139C580.646 518.65 580.108 517.997 579.932 517.135C579.73 516.368 579.838 515.582 580.163 514.752C579.502 515.696 578.728 516.303 577.841 516.575C576.979 516.751 576.098 516.617 575.345 516.008C574.331 515.227 573.775 514.263 573.675 513.116C573.575 511.969 574.077 510.473 575.321 508.872C575.613 508.542 575.81 508.188 576.102 507.858C576.711 507.105 577.054 506.586 577.175 506.516L578.641 504.465L579.42 504.979L578.658 506.302L587.827 513.139ZM575.91 509.335C575.129 510.348 574.875 511.298 574.887 512.014C574.898 512.731 575.411 513.479 576.19 513.993C576.943 514.603 577.704 514.806 578.35 514.674C578.997 514.542 579.65 514.004 580.285 513.155C581.066 512.142 581.459 511.433 581.631 511.173L577.103 507.923C576.983 507.993 576.545 508.486 575.91 509.335ZM581.965 512.587L581.33 513.435C580.841 514.119 580.663 514.785 580.796 515.431C580.928 516.078 581.371 516.706 582.055 517.195C582.739 517.683 583.404 517.862 584.025 517.824C584.576 517.667 585.204 517.224 585.865 516.28C586.157 515.951 586.379 515.501 586.576 515.147L586.773 514.792L582.6 511.738C582.549 511.929 582.282 512.163 581.965 512.587Z" fill="black"/>
<path d="M579.051 526.881L577.807 528.483L564.852 523.993L564.027 524.791L563.274 524.181L566.346 520.319L567.1 520.928L566.242 522.226L568.922 523.25L572.311 518.963L570.704 516.598L569.588 517.724L568.834 517.115L571.589 513.677L572.342 514.286L571.752 515.35L579.051 526.881ZM575.966 525.851L577.531 526.473L576.481 525.072L572.988 519.858L570.062 523.556L575.966 525.851Z" fill="black"/>
<path d="M561.699 527.019C562.802 526.703 563.924 526.698 565.064 527.004C566.205 527.309 567.338 528.021 568.421 528.922C569.504 529.823 570.25 530.838 570.661 531.967C571.071 533.095 571.171 534.242 570.961 535.408C570.75 536.574 570.16 537.638 569.404 538.556C568.795 539.31 567.875 540.082 566.835 540.923L566.327 541.297L563.909 538.917L564.76 538.025L566.888 539.206C567.103 539.162 567.439 539.048 567.826 538.744C568.188 538.536 568.6 538.137 568.943 537.618C569.501 537.054 569.8 536.319 569.814 535.508C569.922 534.723 569.72 533.955 569.233 533.112C568.746 532.268 568.164 531.4 567.151 530.619C566.233 529.863 565.385 529.229 564.46 528.879C563.535 528.529 562.654 528.395 561.818 528.477C560.981 528.558 560.258 528.975 559.649 529.729C559.211 530.223 558.893 530.647 558.792 531.027C558.595 531.382 558.613 531.692 558.537 531.977L559.39 533.734L558.471 534.506L556.787 532.425C556.933 532.261 557.13 531.906 557.378 531.361C557.6 530.912 557.797 530.557 557.994 530.202C558.191 529.848 558.508 529.423 558.946 528.929C559.581 528.081 560.596 527.334 561.699 527.019Z" fill="black"/>
<path d="M557.784 546.952C558.099 548.055 558.13 549.082 557.875 550.032C557.62 550.983 557.176 551.882 556.376 552.585C555.526 553.477 554.562 554.034 553.579 554.28C552.597 554.526 551.5 554.436 550.481 554.061C549.461 553.685 548.422 553 547.434 552.124C546.377 551.128 545.561 549.992 545.176 548.769C544.765 547.64 544.57 546.467 544.85 545.422C545.035 544.351 545.601 543.382 546.331 542.559C547.181 541.667 548.145 541.11 549.153 540.769C550.135 540.523 551.232 540.613 552.252 540.988C553.272 541.363 554.31 542.049 555.298 542.925L557.411 540.741L553.442 536.927L552.16 537.908L551.527 537.229L555.075 533.494L555.733 534.078L554.781 535.351L563.118 543.39L564.279 542.479L564.912 543.158L561.39 546.798L560.757 546.119L561.709 544.846L558.069 541.325L555.956 543.509C556.937 544.79 557.468 545.849 557.784 546.952ZM556.609 548.675C556.319 547.476 555.459 546.126 554.003 544.717C552.711 543.454 551.388 542.692 550.127 542.456C548.866 542.22 547.763 542.536 546.913 543.428C546.062 544.321 545.808 545.271 546.098 546.469C546.388 547.667 547.248 549.018 548.799 550.452C550.09 551.715 551.319 552.452 552.554 552.783C553.79 553.114 554.798 552.773 555.648 551.88C556.499 550.988 556.779 549.942 556.609 548.675Z" fill="black"/>
<path d="M539.512 557.742C538.726 557.634 537.681 557.354 536.446 557.022C535.59 556.793 534.925 556.615 534.45 556.488C534.07 556.386 533.759 556.405 533.518 556.544L532.821 556.866L532.188 556.187L533.838 554.592C534.079 554.453 534.415 554.339 535.08 554.517C535.65 554.67 536.505 554.899 537.646 555.205C538.856 555.631 539.806 555.886 540.592 555.994C541.257 556.173 541.783 556.11 542.075 555.781L542.9 554.983L539.267 551.056L537.89 552.011L537.257 551.332L541.039 547.864L541.672 548.543L540.65 549.695L548.549 558.228L549.805 557.343L550.438 558.022L546.777 561.42L546.144 560.742L547.096 559.469L543.463 555.541L542.251 556.643L543.143 563.197L544.399 562.311L545.032 562.99L541.638 566.155L541.005 565.476L541.932 564.298L541.186 557.58C541.014 557.839 540.298 557.851 539.512 557.742Z" fill="black"/>
<path d="M530.233 558.923C531.285 558.797 532.356 558.982 533.325 559.547C534.414 560.043 535.307 560.893 536.243 561.959C537.18 563.025 537.781 564.205 538.071 565.403C538.361 566.601 538.366 567.723 537.991 568.742C537.616 569.762 537.05 570.731 536.131 571.503C534.678 572.744 533.118 573.243 531.547 573.025C529.975 572.808 528.512 571.805 527.012 570.181C526.076 569.115 525.475 567.935 525.185 566.737C524.895 565.539 524.89 564.417 525.29 563.302C525.596 562.162 526.231 561.313 527.151 560.541C528.147 559.484 529.18 559.048 530.233 558.923ZM536.794 567.505C536.625 566.237 535.885 564.817 534.55 563.339C533.309 561.886 532.106 561.054 530.896 560.628C529.686 560.202 528.608 560.423 527.689 561.195C526.769 561.967 526.394 562.987 526.563 564.254C526.733 565.522 527.472 566.943 528.782 568.516C530.023 569.969 531.226 570.8 532.436 571.227C533.672 571.558 534.749 571.337 535.669 570.565C536.589 569.793 536.964 568.773 536.794 567.505Z" fill="black"/>
<path d="M528.101 576.38L529.427 575.615L530.034 576.389L528.099 577.908C527.738 578.116 527.325 578.515 526.888 579.009C526.475 579.408 526.088 579.711 525.847 579.851C524.445 580.901 523.386 581.432 522.455 581.488C521.523 581.544 520.719 581.125 520.111 580.351C519.573 579.697 519.276 578.905 519.29 578.094C519.304 577.282 519.602 576.548 520.186 575.889C519.266 576.661 518.353 577.028 517.447 576.989C516.541 576.949 515.736 576.53 515.129 575.756C514.382 574.741 514.067 573.638 514.277 572.472C514.488 571.307 515.44 570.034 516.988 568.819C517.375 568.515 517.736 568.306 518.003 568.072C518.777 567.465 519.259 567.187 519.405 567.022L521.339 565.503L521.852 566.252L520.735 567.378L528.101 576.38ZM517.716 569.523C516.701 570.27 516.187 571.049 516.078 571.834C515.969 572.62 516.171 573.387 516.779 574.161C517.386 574.935 518 575.303 518.691 575.387C519.382 575.47 520.079 575.147 520.974 574.47C521.989 573.724 522.642 573.186 522.813 572.926L519.403 568.549C519.023 568.447 518.515 568.821 517.716 569.523ZM522.647 574.308L521.873 574.915C521.22 575.453 520.851 576.067 520.768 576.758C520.685 577.449 520.912 578.121 521.545 578.8C522.083 579.453 522.697 579.821 523.293 579.879C523.889 579.937 524.586 579.615 525.481 578.938C525.868 578.634 526.16 578.305 526.547 578.001L526.813 577.767L523.636 573.656C523.3 573.77 523.034 574.004 522.647 574.308Z" fill="black"/>
<g style="mix-blend-mode:overlay">
<circle cx="113.44" cy="108.395" r="2" fill="black"/>
</g>
<g style="mix-blend-mode:overlay">
<circle cx="517.939" cy="82.7654" r="2" fill="black"/>
</g>
</g>
</svg>
